<?xml version="1.0" encoding="UTF-8" standalone="no"?>
<!-- Created with Keyshape -->
<svg xmlns="http://www.w3.org/2000/svg" xmlns:xlink="http://www.w3.org/1999/xlink" width="80px" height="59px" viewBox="0 0 80 59">
    <style>
@keyframes text2_t { 0% { transform: translate(0px,0px); } 25% { transform: translate(0px,0px); animation-timing-function: cubic-bezier(0.42,0,0.58,1); } 32.5% { transform: translate(0px,-8px); animation-timing-function: cubic-bezier(0.42,0,0.58,1); } 75% { transform: translate(0px,-8px); animation-timing-function: cubic-bezier(0.42,0,0.58,1); } 82.5% { transform: translate(0px,-14px); } 100% { transform: translate(0px,-14px); } }
@keyframes text2_o { 0% { opacity: 1; } 75% { opacity: 1; } 82.5% { opacity: 0; } 100% { opacity: 0; } }
@keyframes text1_t { 0% { transform: translate(0px,0px); } 25% { transform: translate(0px,0px); animation-timing-function: cubic-bezier(0.42,0,0.58,1); } 32.5% { transform: translate(0px,-6px); } 100% { transform: translate(0px,-6px); } }
@keyframes text1_o { 0% { opacity: 1; } 25% { opacity: 1; } 32.5% { opacity: 0; } 100% { opacity: 0; } }
@keyframes tick2_t { 0% { transform: translate(0px,0px); } 25% { transform: translate(0px,0px); animation-timing-function: cubic-bezier(0.42,0,0.58,1); } 32.5% { transform: translate(0px,-8px); animation-timing-function: cubic-bezier(0.42,0,0.58,1); } 75% { transform: translate(0px,-8px); animation-timing-function: cubic-bezier(0.42,0,0.58,1); } 82.5% { transform: translate(0px,-14px); } 100% { transform: translate(0px,-14px); } }
@keyframes tick2_o { 0% { opacity: 1; } 75% { opacity: 1; } 82.5% { opacity: 0; } 100% { opacity: 0; } }
@keyframes tick1_t { 0% { transform: translate(0px,0px); } 25% { transform: translate(0px,0px); animation-timing-function: cubic-bezier(0.42,0,0.58,1); } 32.5% { transform: translate(0px,-6px); } 100% { transform: translate(0px,-6px); } }
@keyframes tick1_o { 0% { opacity: 1; } 25% { opacity: 1; } 32.5% { opacity: 0; } 100% { opacity: 0; } }
@keyframes a0_t { 0% { transform: translate(32.5px,26.5px); } 75% { transform: translate(32.5px,26.5px); animation-timing-function: cubic-bezier(0.42,0,0.58,1); } 82.5% { transform: translate(32.5px,18.5px); } 100% { transform: translate(32.5px,18.5px); } }
@keyframes tick1-2_t { 0% { transform: scale(1.5,1.5) translate(-32.5px,-18.5px); } 32.5% { transform: scale(1.5,1.5) translate(-32.5px,-18.5px); animation-timing-function: cubic-bezier(0.42,0,1,1); } 40% { transform: scale(1,1) translate(-32.5px,-18.5px); } 100% { transform: scale(1,1) translate(-32.5px,-18.5px); } }
@keyframes tick1-2_o { 0% { opacity: 0; } 32.5% { opacity: 0; animation-timing-function: cubic-bezier(0.42,0,1,1); } 40% { opacity: 1; } 100% { opacity: 1; } }
@keyframes text1-2_t { 0% { transform: translate(0px,8px); } 75% { transform: translate(0px,8px); animation-timing-function: cubic-bezier(0.42,0,0.58,1); } 82.5% { transform: translate(0px,0px); } 100% { transform: translate(0px,0px); } }
@keyframes text1-2_o { 0% { opacity: 0; } 32.5% { opacity: 0; } 40% { opacity: 1; } 100% { opacity: 1; } }
@keyframes text1-2_d { 0% { d: path('M39.1818,18.9245C39.1818,19.659,39.6125,20.2453,40.1437,20.2453L50.7427,20.2453C51.2735,20.2453,51.7045,19.654,51.7045,18.9245C51.7045,18.19,51.2739,17.6038,50.7427,17.6038L40.1437,17.6038C39.6129,17.6038,39.1818,18.1951,39.1818,18.9245Z'); } 100% { d: path('M39.1818,18.9245C39.1818,19.659,39.6125,20.2453,40.1437,20.2453L50.7427,20.2453C51.2735,20.2453,51.7045,19.654,51.7045,18.9245C51.7045,18.19,51.2739,17.6038,50.7427,17.6038L40.1437,17.6038C39.6129,17.6038,39.1818,18.1951,39.1818,18.9245Z'); } }
@keyframes tick2-2_t { 0% { transform: translate(32.5px,26.5px) scale(1.5,1.5) translate(-32.5px,-26.5px); } 82.5% { transform: translate(32.5px,26.5px) scale(1.5,1.5) translate(-32.5px,-26.5px); animation-timing-function: cubic-bezier(0.42,0,1,1); } 90% { transform: translate(32.5px,26.5px) scale(1,1) translate(-32.5px,-26.5px); } 100% { transform: translate(32.5px,26.5px) scale(1,1) translate(-32.5px,-26.5px); } }
@keyframes tick2-2_o { 0% { opacity: 0; } 82.5% { opacity: 0; animation-timing-function: cubic-bezier(0.42,0,1,1); } 90% { opacity: 1; } 100% { opacity: 1; } }
@keyframes text2-2_o { 0% { opacity: 0; } 82.5% { opacity: 0; } 90% { opacity: 1; } 100% { opacity: 1; } }
@keyframes text2-2_d { 0% { d: path('M39.1818,26.8491C39.1818,27.5836,39.593,28.1698,40.1003,28.1698L47.4906,28.1698C47.9947,28.1698,48.4091,27.5785,48.4091,26.8491C48.4091,26.1145,47.9979,25.5283,47.4906,25.5283L40.1003,25.5283C39.5962,25.5283,39.1818,26.1196,39.1818,26.8491Z'); } 100% { d: path('M39.1818,26.8491C39.1818,27.5836,39.593,28.1698,40.1003,28.1698L47.4906,28.1698C47.9947,28.1698,48.4091,27.5785,48.4091,26.8491C48.4091,26.1145,47.9979,25.5283,47.4906,25.5283L40.1003,25.5283C39.5962,25.5283,39.1818,26.1196,39.1818,26.8491Z'); } }
    </style>
    <title>compliance</title>
    <desc>Created with Sketch.</desc>
    <path id="shadow" d="M8,4L78,4C79.1046,4,80,4.89543,80,6L80,51C80,55.4183,76.4183,59,72,59L2,59C0.89543,59,0,58.1046,0,57L0,12C0,7.58172,3.58172,4,8,4Z" fill="#E31E7B"/>
    <path id="bg" d="M8,0L78,0C79.1046,0,80,0.89543,80,2L80,47C80,51.4183,76.4183,55,72,55L2,55C0.89543,55,0,54.1046,0,53L0,8C0,3.58172,3.58172,0,8,0Z" fill="#FF8BA0"/>
    <path id="doc" d="M26,13.6398C26,12.1819,27.1818,11,28.6376,11L52.3624,11C53.8191,11,55,12.1846,55,13.645L55,43.355C55,44.8158,53.8219,46,52.363,46L35.2192,46L26,37.3974L26,13.6398Z" fill="#E31E7B"/>
    <path id="corner" d="M26,37L32.433,37C33.8507,37,35,38.242,35,39.7737L35,46L26,38Z" fill="#87003C"/>
    <path id="text2" d="M39.1818,26.8491C39.1818,27.5836,39.593,28.1698,40.1003,28.1698L47.4906,28.1698C47.9947,28.1698,48.4091,27.5785,48.4091,26.8491C48.4091,26.1145,47.9979,25.5283,47.4906,25.5283L40.1003,25.5283C39.5962,25.5283,39.1818,26.1196,39.1818,26.8491Z" fill="#FF8BA0" opacity="1" style="animation: 4s linear infinite both text2_t, 4s linear infinite both text2_o;"/>
    <path id="text1" d="M39.1818,18.9245C39.1818,19.659,39.6125,20.2453,40.1437,20.2453L50.7427,20.2453C51.2735,20.2453,51.7045,19.654,51.7045,18.9245C51.7045,18.19,51.2739,17.6038,50.7427,17.6038L40.1437,17.6038C39.6129,17.6038,39.1818,18.1951,39.1818,18.9245Z" fill="#FF8BA0" opacity="1" style="animation: 4s linear infinite both text1_t, 4s linear infinite both text1_o;"/>
    <path id="tick2" d="M30.1952,26.3046C29.9218,26.0478,29.4785,26.0478,29.2051,26.3046C28.9316,26.5614,28.9316,26.9778,29.2051,27.2346L30.8797,28.8074C31.1532,29.0642,31.5965,29.0642,31.8699,28.8074L35.7949,25.1226C36.0684,24.8658,36.0684,24.4494,35.7949,24.1926C35.5215,23.9358,35.0782,23.9358,34.8048,24.1926L31.3748,27.4124L30.1952,26.3046Z" fill="#87003C" opacity="1" transform="translate(32.5,26.5) translate(-32.5,-26.5)" style="animation: 4s linear infinite both tick2_t, 4s linear infinite both tick2_o;"/>
    <path id="tick1" d="M30.1952,18.3046C29.9218,18.0478,29.4785,18.0478,29.2051,18.3046C28.9316,18.5614,28.9316,18.9778,29.2051,19.2346L30.8797,20.8074C31.1532,21.0642,31.5965,21.0642,31.8699,20.8074L35.7949,17.1226C36.0684,16.8658,36.0684,16.4494,35.7949,16.1926C35.5215,15.9358,35.0782,15.9358,34.8048,16.1926L31.3748,19.4124L30.1952,18.3046Z" fill="#87003C" opacity="1" transform="translate(32.5,18.5) translate(-32.5,-18.5)" style="animation: 4s linear infinite both tick1_t, 4s linear infinite both tick1_o;"/>
    <g id="tick1-2" style="animation: 4s linear infinite both a0_t;">
        <path d="M30.1952,18.3046C29.9218,18.0478,29.4785,18.0478,29.2051,18.3046C28.9316,18.5614,28.9316,18.9778,29.2051,19.2346L30.8797,20.8074C31.1532,21.0642,31.5965,21.0642,31.8699,20.8074L35.7949,17.1226C36.0684,16.8658,36.0684,16.4494,35.7949,16.1926C35.5215,15.9358,35.0782,15.9358,34.8048,16.1926L31.3748,19.4124L30.1952,18.3046Z" fill="#87003C" opacity="0" transform="translate(32.5,26.5) scale(1.5,1.5) translate(-32.5,-18.5)" style="animation: 4s linear infinite both tick1-2_t, 4s linear infinite both tick1-2_o;"/>
    </g>
    <path id="text1-2" d="M39.1818,18.9245C39.1818,19.659,39.6125,20.2453,40.1437,20.2453L50.7427,20.2453C51.2735,20.2453,51.7045,19.654,51.7045,18.9245C51.7045,18.19,51.2739,17.6038,50.7427,17.6038L40.1437,17.6038C39.6129,17.6038,39.1818,18.1951,39.1818,18.9245Z" fill="#FF8BA0" opacity="0" transform="translate(0,8)" style="animation: 4s linear infinite both text1-2_t, 4s linear infinite both text1-2_o, 4s linear infinite both text1-2_d;"/>
    <path id="tick2-2" d="M30.1952,26.3046C29.9218,26.0478,29.4785,26.0478,29.2051,26.3046C28.9316,26.5614,28.9316,26.9778,29.2051,27.2346L30.8797,28.8074C31.1532,29.0642,31.5965,29.0642,31.8699,28.8074L35.7949,25.1226C36.0684,24.8658,36.0684,24.4494,35.7949,24.1926C35.5215,23.9358,35.0782,23.9358,34.8048,24.1926L31.3748,27.4124L30.1952,26.3046Z" fill="#87003C" opacity="0" transform="translate(32.5,26.5) scale(1.5,1.5) translate(-32.5,-26.5)" style="animation: 4s linear infinite both tick2-2_t, 4s linear infinite both tick2-2_o;"/>
    <path id="text2-2" d="M39.1818,26.8491C39.1818,27.5836,39.593,28.1698,40.1003,28.1698L47.4906,28.1698C47.9947,28.1698,48.4091,27.5785,48.4091,26.8491C48.4091,26.1145,47.9979,25.5283,47.4906,25.5283L40.1003,25.5283C39.5962,25.5283,39.1818,26.1196,39.1818,26.8491Z" fill="#FF8BA0" opacity="0" style="animation: 4s linear infinite both text2-2_o, 4s linear infinite both text2-2_d;"/>
</svg>
