<?xml version="1.0" encoding="UTF-8" standalone="no"?>
<!-- Created with Keyshape -->
<svg xmlns="http://www.w3.org/2000/svg" xmlns:xlink="http://www.w3.org/1999/xlink" width="80" height="59" viewBox="0 0 80 59">
    <style>
@keyframes dollar_t { 0% { transform: translate(31px,32px) scale(1,1) translate(-12px,-13px); } 14.2857% { transform: translate(31px,32px) scale(1,1) translate(-12px,-13px); animation-timing-function: cubic-bezier(0.42,0,1,1); } 17.1428% { transform: translate(31px,32px) scale(1.1,1.1) translate(-12px,-13px); animation-timing-function: cubic-bezier(0,0,0.58,1); } 20% { transform: translate(31px,32px) scale(1,1) translate(-12px,-13px); } 100% { transform: translate(31px,32px) scale(1,1) translate(-12px,-13px); } }
@keyframes bitcoin_t { 0% { transform: translate(51.5px,26.5px) scale(1,1) translate(-13.5px,-14.5px); } 17.1428% { transform: translate(51.5px,26.5px) scale(1,1) translate(-13.5px,-14.5px); animation-timing-function: cubic-bezier(0.42,0,1,1); } 20% { transform: translate(51.5px,26.5px) scale(1.1,1.1) translate(-13.5px,-14.5px); animation-timing-function: cubic-bezier(0,0,0.58,1); } 22.8571% { transform: translate(51.5px,26.5px) scale(1,1) translate(-13.5px,-14.5px); } 100% { transform: translate(51.5px,26.5px) scale(1,1) translate(-13.5px,-14.5px); } }
    </style>
    <g fill="none" fill-rule="evenodd">
        <path fill="#3b2a66" d="M8,4L78,4C79.1046,4,80,4.89543,80,6L80,51C80,55.4183,76.4183,59,72,59L2,59C0.89543,59,0,58.1046,0,57L0,12C0,7.58172,3.58172,4,8,4Z"/>
        <path fill="#7956d1" d="M8,0L78,0C79.1046,0,80,0.89543,80,2L80,47C80,51.4183,76.4183,55,72,55L2,55C0.89543,55,0,54.1046,0,53L0,8C0,3.58172,3.58172,0,8,0Z"/>
        <g id="dollar" transform="translate(31,32) translate(-12,-13)" style="animation: 7s linear infinite both dollar_t;">
            <path fill="#3b2a66" d="M23,42.5188C23,43.8911,24.0745,45,25.4,45L44.6,45C45.9221,45,47,43.8891,47,42.5188L47,21.4812C47,20.1089,45.9255,19,44.6,19L25.4,19C24.0779,19,23,20.1109,23,21.4812L23,42.5188Z" transform="translate(-23,-19)"/>
            <ellipse fill="#7956d1" rx="8" ry="8" transform="translate(-24,-19) translate(36,32)"/>
            <path fill="#3b2a66" d="M35.0378,36L35.0378,34.8635C33.9841,34.7713,33.3479,34.3003,33,33.9829L33.4473,32.9386C33.7555,33.215,34.4016,33.6553,35.4354,33.6553C36.002,33.6553,36.5984,33.3379,36.5984,32.8362C36.5984,32.3447,36.0616,32.1809,35.5845,32.0683C34.4513,31.7816,33.2286,31.3823,33.2286,29.9898C33.2286,28.8942,34.0437,28.2389,35.0378,28.1058L35.0378,27L36.0219,27L36.0219,28.116C36.668,28.1672,37.2445,28.4539,37.7217,28.7816L37.2744,29.8259C36.8469,29.5392,36.2306,29.3038,35.5348,29.3038C35.1173,29.3038,34.6203,29.5392,34.6203,29.9693C34.6203,30.4198,35.0378,30.5529,35.6143,30.7065C36.8072,31.0341,38,31.5051,38,32.8055C38,33.9829,37.0855,34.6587,36.0219,34.8328L36.0219,36L35.0378,36Z" transform="translate(-23.5,-18.3)"/>
        </g>
        <g id="bitcoin" transform="translate(51.5,26.5) translate(-13.5,-14.5)" style="animation: 7s linear infinite both bitcoin_t;">
            <path fill="#f2f4fb" d="M61,12.7675C61,11.2368,59.7912,10,58.3,10L36.7,10C35.2126,10,34,11.2391,34,12.7675L34,36.2325C34,37.7632,35.2088,39,36.7,39L58.3,39C59.7874,39,61,37.7609,61,36.2325L61,12.7675Z" transform="translate(-34,-10)"/>
            <ellipse fill="#7956d1" rx="8" ry="8" transform="translate(-34,-10) translate(47,25)"/>
            <path fill="#f2f4fb" fill-rule="nonzero" d="M51.1952,23.5016C51.0474,23.2445,50.8197,22.9982,50.5179,22.7699C50.2231,22.5469,49.8268,22.3447,49.339,22.1695L48.8702,22.0008L49.3276,20.7532L48.6868,20.5227L48.2295,21.7703L47.418,21.4781L47.875,20.2305L47.2343,20L46.7772,21.2476L44.9102,20.5757L44.6018,21.418L45.4445,21.7212L43.6517,26.6139L42.8087,26.3107L42.5,27.1527L44.367,27.8246L43.914,29.0605L44.5547,29.2911L45.0075,28.0551L45.8192,28.3473L45.3665,29.5832L46.0073,29.8139L46.46,28.5778L46.8233,28.7086C47.2692,28.8691,47.6686,28.9686,48.0106,29.0045C48.3649,29.0416,48.6767,29.0243,48.9383,28.9535C49.2137,28.8788,49.4427,28.7509,49.6195,28.5735C49.7903,28.4023,49.9205,28.1957,50.0074,27.9592C50.0764,27.7708,50.1136,27.5762,50.1184,27.3804C50.1231,27.1805,50.0888,26.9785,50.0161,26.7804C49.9495,26.5986,49.8459,26.4203,49.7076,26.2497C49.7233,26.2489,49.739,26.248,49.7543,26.2469C50.0185,26.228,50.255,26.1688,50.4576,26.0708C50.6649,25.9707,50.841,25.8328,50.981,25.6616C51.1152,25.497,51.2228,25.3055,51.3012,25.0919C51.3917,24.8449,51.4354,24.5853,51.4314,24.3201C51.4272,24.0423,51.3478,23.7668,51.1952,23.5016ZM48.6024,27.4111C48.5417,27.5768,48.4722,27.7143,48.3962,27.8203C48.3361,27.9039,48.2623,27.9619,48.1707,27.9976C48.0718,28.0361,47.9401,28.0466,47.7789,28.0292C47.5948,28.0095,47.3589,27.9478,47.0773,27.8466L44.9863,27.0942L45.6865,25.1838L45.9274,25.2705C46.3999,25.4405,48.0703,26.0697,48.2405,26.1689C48.416,26.2711,48.5445,26.3812,48.6219,26.4964C48.6923,26.6008,48.7261,26.7162,48.7247,26.8488C48.7234,27.0043,48.682,27.1934,48.6024,27.4111ZM49.8777,24.5559C49.8034,24.7582,49.719,24.9238,49.6262,25.0474C49.5505,25.1481,49.4555,25.2168,49.3359,25.257C49.2051,25.3009,49.0322,25.3089,48.8224,25.2805C48.6263,25.2528,46.9655,24.6909,46.4005,24.4876L45.9949,24.3416L46.7792,22.2016L48.963,22.9873C49.2373,23.0859,49.4604,23.1901,49.6261,23.2966C49.7715,23.3899,49.8759,23.4928,49.9371,23.6027C49.9963,23.7086,50.0215,23.8286,50.0146,23.9692C50.0068,24.1318,49.9607,24.3291,49.8777,24.5559Z" transform="translate(-34,-10)"/>
        </g>
    </g>
</svg>
