<?xml version="1.0" encoding="UTF-8" standalone="no"?>
<!-- Created with Keyshape -->
<svg xmlns="http://www.w3.org/2000/svg" xmlns:xlink="http://www.w3.org/1999/xlink" width="80" height="59" viewBox="0 0 80 59">
    <style>
@keyframes euro_t { 0% { transform: translate(37.333333px,23.192771px) scale(0.85,0.85) translate(-18.666667px,-11.927711px); } 8.3333% { transform: translate(37.333333px,23.192771px) scale(0.85,0.85) translate(-18.666667px,-11.927711px); animation-timing-function: cubic-bezier(0.42,0,0.58,1); } 10.8333% { transform: translate(30.33px,15.19px) scale(0.85,0.85) translate(-18.666667px,-11.927711px); } 58.3333% { transform: translate(30.33px,15.19px) scale(0.85,0.85) translate(-18.666667px,-11.927711px); animation-timing-function: cubic-bezier(0.42,0,0.58,1); } 60.8333% { transform: translate(37.3333px,23.1928px) scale(0.85,0.85) translate(-18.666667px,-11.927711px); } 100% { transform: translate(37.3333px,23.1928px) scale(0.85,0.85) translate(-18.666667px,-11.927711px); } }
@keyframes euro_o { 0% { opacity: 1; } 11.6667% { opacity: 1; } 12.5% { opacity: 0; } 56.6667% { opacity: 0; } 57.5% { opacity: 1; } 100% { opacity: 1; } }
@keyframes a0_t { 0% { transform: translate(42.666667px,32.46988px); } 8.3333% { transform: translate(42.666667px,32.46988px); animation-timing-function: cubic-bezier(0.42,0,0.58,1); } 10.8333% { transform: translate(50.670002px,39.469999px); } 16.6666% { transform: translate(50.67px,39.47px); animation-timing-function: cubic-bezier(0.42,0,0.58,1); } 19.1666% { transform: translate(42.6667px,32.4699px); } 50% { transform: translate(42.6667px,32.4699px); animation-timing-function: cubic-bezier(0.42,0,0.58,1); } 52.5% { transform: translate(50.67px,39.47px); } 58.3333% { transform: translate(50.67px,39.47px); animation-timing-function: cubic-bezier(0.42,0,0.58,1); } 60.8333% { transform: translate(42.6667px,32.4699px); } 100% { transform: translate(42.6667px,32.4699px); } }
@keyframes dollar_t { 0% { transform: scale(0.85,0.85) translate(-18.666667px,-11.927711px); } 12.5% { transform: scale(0.85,0.85) translate(-18.666667px,-11.927711px); animation-timing-function: cubic-bezier(0.42,0,1,1); } 14.1666% { transform: scale(0.95,0.95) translate(-18.666667px,-11.927711px); animation-timing-function: cubic-bezier(0,0,0.58,1); } 15.8333% { transform: scale(0.85,0.85) translate(-18.666667px,-11.927711px); } 54.1666% { transform: scale(0.82,0.82) translate(-18.666667px,-11.927711px); animation-timing-function: cubic-bezier(0.42,0,1,1); } 55.8333% { transform: scale(0.95,0.95) translate(-18.666667px,-11.927711px); animation-timing-function: cubic-bezier(0,0,0.58,1); } 57.4999% { transform: scale(0.85,0.85) translate(-18.666667px,-11.927711px); } 100% { transform: scale(0.85,0.85) translate(-18.666667px,-11.927711px); } }
@keyframes a1_t { 0% { transform: translate(37.3333px,23.1928px); } 8.3333% { transform: translate(37.3333px,23.1928px); animation-timing-function: cubic-bezier(0.42,0,0.58,1); } 10.8333% { transform: translate(30.33px,15.19px); } 16.6666% { transform: translate(30.33px,15.19px); animation-timing-function: cubic-bezier(0.42,0,0.58,1); } 19.1666% { transform: translate(37.3333px,23.1928px); } 50% { transform: translate(37.3333px,23.1928px); animation-timing-function: cubic-bezier(0.42,0,0.58,1); } 52.5% { transform: translate(30.33px,15.19px); } 58.3333% { transform: translate(30.33px,15.19px); animation-timing-function: cubic-bezier(0.42,0,0.58,1); } 60.8333% { transform: translate(37.3333px,23.1928px); } 100% { transform: translate(37.3333px,23.1928px); } }
@keyframes euro-2_t { 0% { transform: scale(0.85,0.85) translate(-18.6667px,-11.9277px); } 8.3333% { transform: scale(0.85,0.85) translate(-18.6667px,-11.9277px); } 11.6666% { transform: scale(0.85,0.85) translate(-18.6667px,-11.9277px); animation-timing-function: cubic-bezier(0.42,0,1,1); } 13.3333% { transform: scale(0.9,0.9) translate(-18.6667px,-11.9277px); animation-timing-function: cubic-bezier(0,0,0.58,1); } 15% { transform: scale(0.85,0.85) translate(-18.6667px,-11.9277px); } 53.3333% { transform: scale(0.85,0.85) translate(-18.6667px,-11.9277px); animation-timing-function: cubic-bezier(0.42,0,1,1); } 55% { transform: scale(0.95,0.95) translate(-18.6667px,-11.9277px); animation-timing-function: cubic-bezier(0,0,0.58,1); } 56.6666% { transform: scale(0.85,0.85) translate(-18.6667px,-11.9277px); } 100% { transform: scale(0.85,0.85) translate(-18.6667px,-11.9277px); } }
@keyframes euro-2_o { 0% { opacity: 0; } 10.8333% { opacity: 0; } 11.6667% { opacity: 1; } 57.5% { opacity: 1; } 58.3333% { opacity: 0; } 100% { opacity: 0; } }
    </style>
    <path fill="#1D566E" d="M8,4L78,4C79.1046,4,80,4.89543,80,6L80,51C80,55.4183,76.4183,59,72,59L2,59C0.89543,59,0,58.1046,0,57L0,12C0,7.58172,3.58172,4,8,4Z"/>
    <path fill="#22AAA5" d="M8,0L78,0C79.1046,0,80,0.89543,80,2L80,47C80,51.4183,76.4183,55,72,55L2,55C0.89543,55,0,54.1046,0,53L0,8C0,3.58172,3.58172,0,8,0Z"/>
    <g id="euro" opacity="1" transform="translate(37.3333,23.1928) scale(0.85,0.85) translate(-18.6667,-11.9277)" style="animation: 12s linear infinite both euro_t, 12s linear infinite both euro_o;">
        <path fill="#1D566E" d="M18.6667,12.5902C18.6667,11.8583,19.2682,11.2651,19.9954,11.2651L54.6713,11.2651C55.4051,11.2651,56,11.8547,56,12.5902L56,33.7954C56,34.5272,55.3985,35.1205,54.6713,35.1205L19.9954,35.1205C19.2616,35.1205,18.6667,34.5308,18.6667,33.7954L18.6667,12.5902Z" transform="translate(-18.6667,-11.2651)"/>
        <path fill="#22AAA5" d="M37.3333,31.1446C41.7516,31.1446,45.3333,27.5844,45.3333,23.1928C45.3333,18.8011,41.7516,15.241,37.3333,15.241C32.9151,15.241,29.3333,18.8011,29.3333,23.1928C29.3333,27.5844,32.9151,31.1446,37.3333,31.1446Z" transform="translate(-18.6667,-11.2651)"/>
        <path fill="#1D566E" d="M37.596,28.8588C35.42,28.8588,33.788,27.2908,33.34,24.9388L31.964,24.9388L32.22,23.9628L33.228,23.9628C33.212,23.8188,33.212,23.6748,33.212,23.5308C33.212,23.3868,33.212,23.2428,33.228,23.1148L32.22,23.1148L32.508,22.1388L33.34,22.1388C33.788,19.7388,35.404,18.1708,37.596,18.1708C38.876,18.1708,39.932,18.6988,40.716,19.6108L39.452,20.8908C39.068,20.3948,38.524,20.0908,37.836,20.0908C36.572,20.0908,35.756,20.8908,35.452,22.1388L38.796,22.1388L38.492,23.1148L35.292,23.1148C35.292,23.1148,35.26,23.2908,35.26,23.5308C35.26,23.7868,35.276,23.9628,35.276,23.9628L38.332,23.9628L38.044,24.9388L35.468,24.9388C35.772,26.1548,36.604,26.9388,37.836,26.9388C38.604,26.9388,39.212,26.5548,39.612,25.9468L40.988,27.0668C40.204,28.1868,39.036,28.8588,37.596,28.8588Z" transform="translate(-18.6667,-11.2651)"/>
    </g>
    <g id="dollar" style="animation: 12s linear infinite both a0_t;">
        <g transform="translate(42.6667,32.4699) scale(0.85,0.85) translate(-18.6667,-11.9277)" style="animation: 12s linear infinite both dollar_t;">
            <path fill="#F2F4FB" d="M61.3333,21.8673C61.3333,21.1319,60.7384,20.5422,60.0046,20.5422L25.3287,20.5422C24.6015,20.5422,24,21.1354,24,21.8673L24,43.0725C24,43.8079,24.5949,44.3976,25.3287,44.3976L60.0046,44.3976C60.7318,44.3976,61.3333,43.8043,61.3333,43.0725L61.3333,21.8673Z" transform="translate(-24,-20.5422)"/>
            <ellipse fill="#1D566E" rx="8" ry="7.952" transform="translate(-24,-20.5422) translate(42.667,32.47)"/>
            <path fill="#FFF" d="M42.1736,37.1084L42.1736,35.9369C41.0497,35.8419,40.3711,35.3564,40,35.0293L40.4771,33.9527C40.8058,34.2377,41.495,34.6915,42.5977,34.6915C43.2021,34.6915,43.8383,34.3644,43.8383,33.8472C43.8383,33.3406,43.2657,33.1717,42.7568,33.0556C41.548,32.7601,40.2439,32.3485,40.2439,30.9131C40.2439,29.7838,41.1133,29.1084,42.1736,28.9712L42.1736,27.8313L43.2233,27.8313L43.2233,28.9817C43.9125,29.0345,44.5275,29.33,45.0364,29.6677L44.5593,30.7443C44.1034,30.4488,43.446,30.206,42.7038,30.206C42.2584,30.206,41.7283,30.4488,41.7283,30.892C41.7283,31.3564,42.1736,31.4936,42.7886,31.6519C44.061,31.9897,45.3333,32.4752,45.3333,33.8155C45.3333,35.0293,44.3579,35.7258,43.2233,35.9053L43.2233,37.1084L42.1736,37.1084Z" transform="translate(-24,-20.5422)"/>
        </g>
    </g>
    <g id="euro-2" style="animation: 12s linear infinite both a1_t;">
        <g opacity="0" transform="translate(37.3333,23.1928) scale(0.85,0.85) translate(-18.6667,-11.9277)" style="animation: 12s linear infinite both euro-2_t, 12s linear infinite both euro-2_o;">
            <path fill="#1D566E" d="M18.6667,12.5902C18.6667,11.8583,19.2682,11.2651,19.9954,11.2651L54.6713,11.2651C55.4051,11.2651,56,11.8547,56,12.5902L56,33.7954C56,34.5272,55.3985,35.1205,54.6713,35.1205L19.9954,35.1205C19.2616,35.1205,18.6667,34.5308,18.6667,33.7954L18.6667,12.5902Z" transform="translate(-18.6667,-11.2651)"/>
            <path fill="#22AAA5" d="M37.3333,31.1446C41.7516,31.1446,45.3333,27.5844,45.3333,23.1928C45.3333,18.8011,41.7516,15.241,37.3333,15.241C32.9151,15.241,29.3333,18.8011,29.3333,23.1928C29.3333,27.5844,32.9151,31.1446,37.3333,31.1446Z" transform="translate(-18.6667,-11.2651)"/>
            <path fill="#1D566E" d="M37.596,28.8588C35.42,28.8588,33.788,27.2908,33.34,24.9388L31.964,24.9388L32.22,23.9628L33.228,23.9628C33.212,23.8188,33.212,23.6748,33.212,23.5308C33.212,23.3868,33.212,23.2428,33.228,23.1148L32.22,23.1148L32.508,22.1388L33.34,22.1388C33.788,19.7388,35.404,18.1708,37.596,18.1708C38.876,18.1708,39.932,18.6988,40.716,19.6108L39.452,20.8908C39.068,20.3948,38.524,20.0908,37.836,20.0908C36.572,20.0908,35.756,20.8908,35.452,22.1388L38.796,22.1388L38.492,23.1148L35.292,23.1148C35.292,23.1148,35.26,23.2908,35.26,23.5308C35.26,23.7868,35.276,23.9628,35.276,23.9628L38.332,23.9628L38.044,24.9388L35.468,24.9388C35.772,26.1548,36.604,26.9388,37.836,26.9388C38.604,26.9388,39.212,26.5548,39.612,25.9468L40.988,27.0668C40.204,28.1868,39.036,28.8588,37.596,28.8588Z" transform="translate(-18.6667,-11.2651)"/>
        </g>
    </g>
</svg>
