<?xml version="1.0" encoding="UTF-8" standalone="no"?>
<!-- Created with Keyshape -->
<svg xmlns="http://www.w3.org/2000/svg" xmlns:xlink="http://www.w3.org/1999/xlink" width="80px" height="59px" viewBox="0 0 80 59">
    <style>
@keyframes top-right_t { 0% { transform: scale(0.3,0.3) translate(-48.25px,-32px); } 12.0967% { transform: scale(0.3,0.3) translate(-48.25px,-32px); animation-timing-function: cubic-bezier(0.42,0,0.58,1); } 15.3225% { transform: scale(1,1) translate(-48.25px,-32px); } 91.129% { transform: scale(1,1) translate(-48.25px,-32px); animation-timing-function: cubic-bezier(0.42,0,0.58,1); } 94.3548% { transform: scale(0.3,0.3) translate(-48.25px,-32px); animation-timing-function: cubic-bezier(0.42,0,0.58,1); } 100% { transform: scale(0.3,0.3) translate(-48.25px,-32px); } }
@keyframes top-right_d { 0% { d: path('M51.9565,29.9565L51.9565,38.4353C51.9565,38.7946,51.6543,39.087,51.2831,39.087L42.5217,39.087C41.4052,39.087,40.5,39.9629,40.5,41.0435C40.5,42.124,41.4052,43,42.5217,43L51.2831,43C56,43,56,43,56,38.4353L56,29.9565C56,28.876,55.0948,28,53.9783,28C52.8617,28,51.9565,28.876,51.9565,29.9565Z'); } 15.3226% { d: path('M51.9565,29.9565L51.9565,38.4353C51.9565,38.7946,51.6543,39.087,51.2831,39.087L42.5217,39.087C41.4052,39.087,40.5,39.9629,40.5,41.0435C40.5,42.124,41.4052,43,42.5217,43L51.2831,43C56,43,56,43,56,38.4353L56,29.9565C56,28.876,55.0948,28,53.9783,28C52.8617,28,51.9565,28.876,51.9565,29.9565Z'); } 91.129% { d: path('M51.9565,29.9565L51.9565,38.4353C51.9565,38.7946,51.6543,39.087,51.2831,39.087L42.5217,39.087C41.4052,39.087,40.5,39.9629,40.5,41.0435C40.5,42.124,41.4052,43,42.5217,43L51.2831,43C56,43,56,43,56,38.4353L56,29.9565C56,28.876,55.0948,28,53.9783,28C52.8617,28,51.9565,28.876,51.9565,29.9565Z'); } 100% { d: path('M51.9565,29.9565L51.9565,38.4353C51.9565,38.7946,51.6543,39.087,51.2831,39.087L42.5217,39.087C41.4052,39.087,40.5,39.9629,40.5,41.0435C40.5,42.124,41.4052,43,42.5217,43L51.2831,43C56,43,56,43,56,38.4353L56,29.9565C56,28.876,55.0948,28,53.9783,28C52.8617,28,51.9565,28.876,51.9565,29.9565Z'); } }
@keyframes top-right_mo { 0% { offset-distance: 0%; } 12.0968% { offset-distance: 0%; animation-timing-function: cubic-bezier(0,0,1,1); } 15.3226% { offset-distance: 50%; } 91.129% { offset-distance: 50%; animation-timing-function: cubic-bezier(0.42,0,0.58,1); } 94.3548% { offset-distance: 100%; animation-timing-function: cubic-bezier(0,0,1,1); } 100% { offset-distance: 100%; } }
@keyframes top-left_t { 0% { transform: scale(0.3,0.3) translate(-32.75px,-24px); } 12.0967% { transform: scale(0.3,0.3) translate(-32.75px,-24px); animation-timing-function: cubic-bezier(0.42,0,0.58,1); } 15.3225% { transform: scale(1,1) translate(-32.75px,-24px); } 91.129% { transform: scale(1,1) translate(-32.75px,-24px); animation-timing-function: cubic-bezier(0.42,0,0.58,1); } 94.3548% { transform: scale(0.3,0.3) translate(-32.75px,-24px); animation-timing-function: cubic-bezier(0.42,0,0.58,1); } 100% { transform: scale(0.3,0.3) translate(-32.75px,-24px); } }
@keyframes top-left_d { 0% { d: path('M29.0435,26.0435L29.0435,17.5647C29.0435,17.2054,29.3457,16.913,29.7169,16.913L38.4783,16.913C39.5948,16.913,40.5,16.0371,40.5,14.9565C40.5,13.876,39.5948,13,38.4783,13L29.7169,13C25,13,25,13,25,17.5647L25,26.0435C25,27.124,25.9052,28,27.0217,28C28.1383,28,29.0435,27.124,29.0435,26.0435Z'); } 15.3226% { d: path('M29.0435,26.0435L29.0435,17.5647C29.0435,17.2054,29.3457,16.913,29.7169,16.913L38.4783,16.913C39.5948,16.913,40.5,16.0371,40.5,14.9565C40.5,13.876,39.5948,13,38.4783,13L29.7169,13C25,13,25,13,25,17.5647L25,26.0435C25,27.124,25.9052,28,27.0217,28C28.1383,28,29.0435,27.124,29.0435,26.0435Z'); } 91.129% { d: path('M29.0435,26.0435L29.0435,17.5647C29.0435,17.2054,29.3457,16.913,29.7169,16.913L38.4783,16.913C39.5948,16.913,40.5,16.0371,40.5,14.9565C40.5,13.876,39.5948,13,38.4783,13L29.7169,13C25,13,25,13,25,17.5647L25,26.0435C25,27.124,25.9052,28,27.0217,28C28.1383,28,29.0435,27.124,29.0435,26.0435Z'); } 100% { d: path('M29.0435,26.0435L29.0435,17.5647C29.0435,17.2054,29.3457,16.913,29.7169,16.913L38.4783,16.913C39.5948,16.913,40.5,16.0371,40.5,14.9565C40.5,13.876,39.5948,13,38.4783,13L29.7169,13C25,13,25,13,25,17.5647L25,26.0435C25,27.124,25.9052,28,27.0217,28C28.1383,28,29.0435,27.124,29.0435,26.0435Z'); } }
@keyframes top-left_mo { 0% { offset-distance: 0%; } 12.0968% { offset-distance: 0%; animation-timing-function: cubic-bezier(0,0,1,1); } 15.3226% { offset-distance: 50%; } 91.129% { offset-distance: 50%; animation-timing-function: cubic-bezier(0.42,0,0.58,1); } 94.3548% { offset-distance: 100%; animation-timing-function: cubic-bezier(0,0,1,1); } 100% { offset-distance: 100%; } }
@keyframes arrows_t { 0% { transform: translate(40.5px,27.5px) scale(0.4,0.4) translate(-40.5px,-27.5px); } 12.0967% { transform: translate(40.5px,27.5px) scale(0.4,0.4) translate(-40.5px,-27.5px); animation-timing-function: cubic-bezier(0.42,0,1,1); } 16.129% { transform: translate(40.5px,27.5px) scale(1.1,1.1) translate(-40.5px,-27.5px); animation-timing-function: cubic-bezier(0,0,0.58,1); } 17.7419% { transform: translate(40.5px,27.5px) scale(1,1) translate(-40.5px,-27.5px); } 88.7096% { transform: translate(40.5px,27.5px) scale(1,1) translate(-40.5px,-27.5px); animation-timing-function: cubic-bezier(0.42,0,1,1); } 90.3225% { transform: translate(40.5px,27.5px) scale(1.1,1.1) translate(-40.5px,-27.5px); animation-timing-function: cubic-bezier(0.42,0,0.58,1); } 94.3548% { transform: translate(40.5px,27.5px) scale(0.4,0.4) translate(-40.5px,-27.5px); animation-timing-function: cubic-bezier(0.42,0,1,1); } 100% { transform: translate(40.5px,27.5px) scale(0.4,0.4) translate(-40.5px,-27.5px); } }
    </style>
    <title>scale</title>
    <desc>Created with Sketch.</desc>
    <g id="scale" transform="translate(40,29.5) translate(-40,-29.5)">
        <path id="shadow" d="M8,4L78,4C79.1046,4,80,4.89543,80,6L80,51C80,55.4183,76.4183,59,72,59L2,59C0.89543,59,0,58.1046,0,57L0,12C0,7.58172,3.58172,4,8,4Z" fill="#34AFAB"/>
        <path id="bg" d="M8,0L78,0C79.1046,0,80,0.89543,80,2L80,47C80,51.4183,76.4183,55,72,55L2,55C0.89543,55,0,54.1046,0,53L0,8C0,3.58172,3.58172,0,8,0Z" fill="#C4F0A4"/>
        <path id="top-right" d="M51.9565,29.9565L51.9565,38.4353C51.9565,38.7946,51.6543,39.087,51.2831,39.087L42.5217,39.087C41.4052,39.087,40.5,39.9629,40.5,41.0435C40.5,42.124,41.4052,43,42.5217,43L51.2831,43C56,43,56,43,56,38.4353L56,29.9565C56,28.876,55.0948,28,53.9783,28C52.8617,28,51.9565,28.876,51.9565,29.9565Z" fill="#206B80" transform=" scale(0.3,0.3) translate(-48.25,-32)" style="animation: 12.4s linear infinite both top-right_t, 12.4s linear infinite both top-right_d, 12.4s linear infinite both top-right_mo; offset-path: path('M47.2283,33.33L47.2283,33.33C47.2283,32.6637,47.2283,31.331,47.2283,31.331L47.2283,31.331L47.2283,33.33L47.2283,33.33'); offset-rotate: 0deg;"/>
        <path id="top-left" d="M29.0435,26.0435L29.0435,17.5647C29.0435,17.2054,29.3457,16.913,29.7169,16.913L38.4783,16.913C39.5948,16.913,40.5,16.0371,40.5,14.9565C40.5,13.876,39.5948,13,38.4783,13L29.7169,13C25,13,25,13,25,17.5647L25,26.0435C25,27.124,25.9052,28,27.0217,28C28.1383,28,29.0435,27.124,29.0435,26.0435Z" fill="#206B80" transform=" scale(0.3,0.3) translate(-32.75,-24)" style="animation: 12.4s linear infinite both top-left_t, 12.4s linear infinite both top-left_d, 12.4s linear infinite both top-left_mo; offset-path: path('M33.75,22.03L33.75,22.03C33.75,22.6951,33.75,24.0254,33.75,24.0254L33.75,24.0254L33.75,22.03L33.75,22.03'); offset-rotate: 0deg;"/>
        <path id="arrows" d="M50.4421,20.5254L53.7467,23.8301C54.4414,24.5248,55,24.2909,55,23.3134L55,14.1806C55,13.5348,54.4714,13,53.8194,13L44.6866,13C43.7095,13,43.4778,13.5611,44.1699,14.2533L47.0244,17.1077L30.1077,34.0244L27.2533,31.1699C26.5586,30.4752,26,30.7091,26,31.6866L26,40.8194C26,41.4652,26.5286,42,27.1806,42L36.3134,42C37.2905,42,37.5222,41.4389,36.8301,40.7467L33.5254,37.4421L50.4421,20.5254Z" fill="#34AFAB" transform="translate(40.5,27.5) scale(0.4,0.4) translate(-40.5,-27.5)" style="animation: 12.4s linear infinite both arrows_t;"/>
    </g>
</svg>
