<?xml version="1.0" encoding="UTF-8" standalone="no"?>
<svg
   xmlns:dc="http://purl.org/dc/elements/1.1/"
   xmlns:cc="http://creativecommons.org/ns#"
   xmlns:rdf="http://www.w3.org/1999/02/22-rdf-syntax-ns#"
   xmlns:svg="http://www.w3.org/2000/svg"
   xmlns="http://www.w3.org/2000/svg"
   xmlns:sodipodi="http://sodipodi.sourceforge.net/DTD/sodipodi-0.dtd"
   xmlns:inkscape="http://www.inkscape.org/namespaces/inkscape"
   width="80px"
   height="59px"
   viewBox="0 0 80 59"
   version="1.1"
   id="svg34"
   sodipodi:docname="Security.svg"
   inkscape:version="1.0 (4035a4fb49, 2020-05-01)">
  <metadata
     id="metadata40">
    <rdf:RDF>
      <cc:Work
         rdf:about="">
        <dc:format>image/svg+xml</dc:format>
        <dc:type
           rdf:resource="http://purl.org/dc/dcmitype/StillImage" />
      </cc:Work>
    </rdf:RDF>
  </metadata>
  <defs
     id="defs38" />
  <sodipodi:namedview
     inkscape:document-rotation="0"
     pagecolor="#ffffff"
     bordercolor="#666666"
     borderopacity="1"
     objecttolerance="10"
     gridtolerance="10"
     guidetolerance="10"
     inkscape:pageopacity="0"
     inkscape:pageshadow="2"
     inkscape:window-width="1920"
     inkscape:window-height="1001"
     id="namedview36"
     showgrid="false"
     inkscape:zoom="14.067797"
     inkscape:cx="26.316265"
     inkscape:cy="40.873493"
     inkscape:window-x="-9"
     inkscape:window-y="-9"
     inkscape:window-maximized="1"
     inkscape:current-layer="scale" />
  <style
     type="text/css"
     id="style2">
        .st0{fill:#C75C5C;}
        .st1{opacity:0.2;}
        .st2{fill:#231F20;}
        .st3{fill:#F5CF87;}
        .st4{fill:#E0995E;}
    </style>
  <title
     id="title4">scale</title>
  <desc
     id="desc6">Created with Sketch.</desc>
  <g
     id="scale"
     transform="translate(40,29.5) translate(-40,-29.5)">
    <path
       id="shadow"
       d="M8,4L78,4C79.1046,4,80,4.89543,80,6L80,51C80,55.4183,76.4183,59,72,59L2,59C0.89543,59,0,58.1046,0,57L0,12C0,7.58172,3.58172,4,8,4Z"
       fill="#34AFAB" />
    <path
       style="fill:#c75c5c;fill-opacity:1"
       id="bg"
       d="M8,0L78,0C79.1046,0,80,0.89543,80,2L80,47C80,51.4183,76.4183,55,72,55L2,55C0.89543,55,0,54.1046,0,53L0,8C0,3.58172,3.58172,0,8,0Z"
       fill="#C4F0A4" />
  </g>
  <g
     id="Layer_1"
     transform="matrix(0.69567018,0,0,0.64902108,16.989156,5.6156636)">
    <g
       class="st1"
       id="g19">
      <path
         class="st2"
         d="M 32,56 C 32,56 14,49.2 14,34.5 V 20.9 c 0,0 5.8,-6.9 18,-6.9 z"
         id="path17" />
    </g>
    <g
       class="st1"
       id="g23">
      <path
         class="st2"
         d="m 32,56 c 0,0 18,-6.8 18,-21.5 V 20.9 C 50,20.9 44.2,14 32,14 Z"
         id="path21" />
    </g>
    <g
       id="g27">
      <path
         class="st3"
         d="M 32,54 C 32,54 14,47.2 14,32.5 V 18.9 c 0,0 5.8,-6.9 18,-6.9 z"
         id="path25" />
    </g>
    <g
       id="g31">
      <path
         class="st4"
         d="m 32,54 c 0,0 18,-6.8 18,-21.5 V 18.9 C 50,18.9 44.2,12 32,12 Z"
         id="path29" />
    </g>
  </g>
</svg>
