<?xml version="1.0" encoding="UTF-8" standalone="no"?>
<!-- Created with Keyshape -->
<svg xmlns="http://www.w3.org/2000/svg" xmlns:xlink="http://www.w3.org/1999/xlink" width="80" height="59" viewBox="0 0 80 59">
    <style>
@keyframes a0_o { 0% { opacity: 0; } 4% { opacity: 0; } 5% { opacity: 1; } 20% { opacity: 1; } 21% { opacity: 0; } 22% { opacity: 1; } 23% { opacity: 0; } 24% { opacity: 1; } 40% { opacity: 1; } 41% { opacity: 0; } 42% { opacity: 1; } 43% { opacity: 0; } 44% { opacity: 1; } 60% { opacity: 1; } 61% { opacity: 0; } 62% { opacity: 1; } 63% { opacity: 0; } 64% { opacity: 1; } 80% { opacity: 1; } 81% { opacity: 0; } 82% { opacity: 1; } 83% { opacity: 0; } 84% { opacity: 1; } 100% { opacity: 1; } }
@keyframes a1_o { 0% { opacity: 0; } 3% { opacity: 0; } 4% { opacity: 1; } 100% { opacity: 1; } }
    </style>
    <g fill="none" fill-rule="evenodd">
        <path fill="#1a32af" d="M8,4L78,4C79.1046,4,80,4.89543,80,6L80,51C80,55.4183,76.4183,59,72,59L2,59C0.89543,59,0,58.1046,0,57L0,12C0,7.58172,3.58172,4,8,4Z"/>
        <path fill="#0055ff" d="M8,0L78,0C79.1046,0,80,0.89543,80,2L80,47C80,51.4183,76.4183,55,72,55L2,55C0.89543,55,0,54.1046,0,53L0,8C0,3.58172,3.58172,0,8,0Z"/>
        <path fill="#F2F4FB" d="M23.3333,15.2571C23.3333,14.1503,24.2249,13.253,25.331,13.253L46.6656,13.253C52.189,13.253,56.6667,17.7289,56.6667,23.2463L56.6667,40.4056C56.6667,41.5124,55.7751,42.4096,54.669,42.4096L33.3344,42.4096C27.811,42.4096,23.3333,37.9337,23.3333,32.4164L23.3333,15.2571Z"/>
        <path fill="#0092FF" d="M40.6667,33.1325C40.6667,32.4006,41.1956,31.8072,41.8489,31.8072L50.1511,31.8072C50.804,31.8072,51.3333,32.3955,51.3333,33.1325C51.3333,33.8645,50.8044,34.4578,50.1511,34.4578L41.8489,34.4578C41.196,34.4578,40.6667,33.8696,40.6667,33.1325Z" opacity="0" style="animation: 10s linear infinite both a0_o;"/>
        <path fill="#05F" d="M31.6774,30.5279L35.8306,26.506L31.6774,22.4841C31.2186,22.0399,31.2186,21.3196,31.6774,20.8754C32.1362,20.4311,32.8799,20.4311,33.3387,20.8754L38.3226,25.7016C38.7814,26.1459,38.7814,26.8662,38.3226,27.3104L33.3387,32.1367C32.8799,32.5809,32.1362,32.5809,31.6774,32.1367C31.2186,31.6924,31.2186,30.9722,31.6774,30.5279Z" opacity="0" style="animation: 10s linear infinite both a1_o;"/>
    </g>
</svg>
