<svg xmlns="http://www.w3.org/2000/svg" width="721" height="650"><defs><clipPath id="a"><path transform="translate(1825)" fill="#fff" stroke="#707070" d="M0 0h721v650H0z"/></clipPath></defs><g transform="translate(-1825)" clip-path="url(#a)"><g opacity=".55" fill="none" stroke="#2f109a" stroke-miterlimit="10"><path d="M2037.399-921.783c123.143 11.726 213.586 126.476 264.105 239.39s69.41 237.077 106.775 354.997S2507.63-91.117 2615.066-29.8c43.584 24.874 98.64 38.758 143.553 16.37 49.75-24.798 70.669-86.162 69.86-141.744s-18.213-109.602-23.341-164.953c-5.2-56.143 3.443-115.868 36.943-161.22s95.707-71.94 148.689-52.665c59.637 21.698 88.69 91.717 88.165 155.177-.523 63.22-17.824 140.264 32.304 178.79 52.096 40.038 125.436-1.45 178.161-40.656 55.462-41.241 113.276-81.308 178.908-102.964s187.773 8.25 247.77 42.563 94.467 108.195 77.854 175.284c-18.166 73.363-116.607 85.158-116.607 85.158-159.917 15.849-261.092 30.963-321.777 128.77a159.014 159.014 0 00-23.806 81.61 172.17 172.17 0 0024.641 91.513 1789.489 1789.489 0 00134.298 194.58c57.878 73.017 125.632 154.887 111.535 246.988-10.704 69.937-66.474 123.217-120.368 169.055-62.177 52.89-127.742 104.456-204.49 132.262s-167.392 28.6-235.52-16.369c-69.404-45.806-103.027-128.184-137.879-203.686-40.23-87.154-37.23-181.923-111.066-243.263-96.177-79.898-200.232-25.083-200.232-25.083-111.715 40.576-220.983 104.61-337.1 129.982s-239.248-29.237-326.75-109.678c-103.172-94.835-112.567-260.039-61.83-390.67 25.122-64.684 63.368-127.433 62.798-196.82-.865-104.86-88.378-187.065-123.82-285.756 0 0-184.665-339.272 38.04-515.917-.001 0 85.608-78.908 193.4-68.64z"/><path d="M2048.307-901.39c120.68 11.49 209.313 123.946 258.823 234.6s68.019 232.334 104.639 347.895S2509.13-87.338 2614.414-27.25c42.713 24.377 96.668 37.983 140.682 16.042 48.755-24.303 69.255-84.438 68.462-138.908s-17.853-107.414-22.875-161.653c-5.096-55.02 3.375-113.548 36.204-157.993s93.792-70.503 145.717-51.611c58.444 21.264 86.917 89.883 86.402 152.073-.513 61.955-17.467 137.458 31.657 175.212 51.053 39.237 122.927-1.42 174.598-39.845 54.352-40.416 111.005-79.684 175.328-100.904s184.016 8.084 242.812 41.71 92.578 106.031 76.297 171.778c-17.803 71.894-114.276 83.454-114.276 83.454-156.718 15.536-255.866 30.35-315.342 126.204a155.829 155.829 0 00-23.33 79.976 168.722 168.722 0 0024.149 89.682 1753.5 1753.5 0 00131.61 190.687c56.72 71.556 123.118 151.788 109.304 242.046-10.49 68.538-65.144 120.753-117.958 165.671-60.938 51.829-125.19 102.364-200.4 129.615s-164.043 28.027-230.81-16.039c-68.015-44.889-100.97-125.621-135.12-199.611-39.424-85.407-36.486-178.281-108.844-238.393-94.251-78.298-196.225-24.581-196.225-24.581-109.485 39.763-216.561 102.514-330.356 127.382s-234.458-28.65-320.213-107.485c-101.105-92.944-110.315-254.845-60.59-382.861 24.619-63.389 62.095-124.884 61.54-192.882-.844-102.76-86.608-183.322-121.34-280.042 0 0-180.97-332.485 37.28-505.595-.003.003 83.893-77.327 189.53-67.268z"/><path d="M2059.214-880.992c118.218 11.258 205.04 121.416 253.538 229.811s66.632 227.59 102.502 340.792 95.374 226.83 198.508 285.69c41.84 23.879 94.695 37.206 137.81 15.714 47.76-23.808 67.842-82.714 67.065-136.072s-17.485-105.217-22.407-158.355c-4.99-53.895 3.306-111.23 35.466-154.768s91.876-69.063 142.74-50.558c57.251 20.83 85.143 88.048 84.638 148.968-.503 60.69-17.11 134.652 31.011 171.635 50.012 38.437 120.417-1.392 171.032-39.03 53.243-39.591 108.74-78.057 171.749-98.843s180.257 7.922 237.855 40.86 90.688 103.866 74.739 168.27c-17.44 70.429-111.938 81.754-111.938 81.754C3480.007-19.907 3382.876-5.4 3324.619 88.498a152.649 152.649 0 00-22.851 78.345 165.278 165.278 0 0023.655 87.851 1717.857 1717.857 0 00128.924 186.796c55.561 70.094 120.604 148.688 107.072 237.104-10.275 67.14-63.814 118.287-115.551 162.293-59.698 50.77-122.636 100.275-196.313 126.967s-160.697 27.46-226.098-15.71c-66.625-43.978-98.904-123.055-132.364-195.537-38.62-83.667-35.74-174.645-106.622-233.53C2692.145 446.38 2592.253 499 2592.253 499c-107.245 38.952-212.14 100.421-323.612 124.781s-229.675-28.066-313.676-105.289c-99.04-91.047-108.059-249.642-59.353-375.047 24.117-62.094 60.832-122.332 60.285-188.943-.828-100.663-84.84-179.581-118.865-274.322 0 0-177.276-325.697 36.515-495.27.004-.007 82.186-75.755 185.667-65.901z"/><path d="M2070.123-860.593c115.752 11.021 200.767 118.886 248.254 225.021s65.242 222.852 100.367 333.691 93.386 222.1 194.37 279.736c40.968 23.381 92.72 36.431 134.94 15.388 46.764-23.311 66.427-80.99 65.666-133.236s-17.12-103.024-21.94-155.054c-4.888-52.773 3.237-108.913 34.727-151.543s89.962-67.623 139.767-49.503c56.057 20.396 83.369 86.21 82.873 145.864-.492 59.426-16.753 131.845 30.365 168.059 48.968 37.635 117.908-1.363 167.47-38.216 52.132-38.767 106.475-76.43 168.168-96.784s176.503 7.754 232.898 40.007 88.798 101.701 73.181 164.765c-17.076 68.96-109.61 80.047-109.61 80.047C3461.302-17.453 3366.2-3.243 3309.156 88.695a149.467 149.467 0 00-22.377 76.711 161.84 161.84 0 0023.162 86.02 1681.945 1681.945 0 00126.237 182.903c54.403 68.633 118.09 145.59 104.842 232.16-10.062 65.739-62.485 115.821-113.143 158.91-58.453 49.712-120.08 98.185-192.223 124.319s-157.345 26.884-221.385-15.383c-65.238-43.057-96.844-120.49-129.603-191.46-37.82-81.927-34.995-171.006-104.4-228.663-90.403-75.101-188.214-23.578-188.214-23.578-105.013 38.14-207.717 98.328-316.868 122.18s-224.889-27.481-307.14-103.094c-96.974-89.147-105.805-244.437-58.115-367.227 23.614-60.798 59.566-119.782 59.029-185.006-.81-98.564-83.072-175.836-116.388-268.605 0 0-173.581-318.909 35.757-484.952-.005-.002 80.47-74.173 181.797-64.523z"/><path d="M2081.026-840.196c113.287 10.787 196.493 116.355 242.97 220.232s63.854 218.104 98.234 326.59S2513.627-76 2612.46-19.594c40.097 22.884 90.748 35.657 132.066 15.061 45.769-22.815 65.013-79.267 64.27-130.401s-16.758-100.83-21.473-151.753c-4.785-51.65 3.168-106.596 33.987-148.318s88.046-66.184 136.792-48.45c54.866 19.958 81.593 84.379 81.11 142.76-.48 58.155-16.398 129.038 29.719 164.48 47.923 36.833 115.398-1.334 163.904-37.402 51.023-37.941 104.206-74.803 164.59-94.724s172.745 7.589 227.941 39.156 86.908 99.537 71.624 161.257c-16.713 67.491-107.275 78.343-107.275 78.343-147.12 14.582-240.196 28.488-296.028 118.47a146.283 146.283 0 00-21.901 75.078 158.388 158.388 0 0022.669 84.19 1646.183 1646.183 0 00123.55 179.009c53.246 67.173 115.576 142.495 102.61 227.221-9.847 64.341-61.155 113.357-110.735 155.529-57.206 48.655-117.52 96.094-188.132 121.675s-153.995 26.31-216.674-15.056c-63.85-42.14-94.782-117.925-126.844-187.386-37.006-80.18-34.246-167.363-102.175-223.794-88.479-73.504-184.207-23.075-184.207-23.075-102.778 37.327-203.298 96.235-310.122 119.58s-220.102-26.897-300.602-100.9c-94.913-87.253-103.556-239.238-56.88-359.415 23.114-59.507 58.297-117.233 57.772-181.069-.793-96.466-81.306-172.095-113.912-262.888 0 0-169.887-312.121 34.997-474.63 0 0 78.758-72.594 177.925-63.15z"/><path d="M2091.932-819.8c110.824 10.552 192.221 113.825 237.687 215.442s62.465 213.363 96.094 319.487 89.409 212.646 186.097 267.828c39.224 22.387 88.774 34.886 129.193 14.733 44.773-22.319 63.6-77.543 62.87-127.565s-16.39-98.638-21.005-148.454c-4.68-50.526 3.1-104.276 33.247-145.092s86.133-64.745 133.818-47.395c53.676 19.529 79.82 82.542 79.347 139.654-.471 56.896-16.041 126.232 29.072 160.904 46.884 36.033 112.889-1.304 160.34-36.588 49.913-37.118 101.94-73.175 161.01-92.664s168.989 7.423 222.984 38.304 85.014 97.371 70.067 157.75c-16.35 66.023-104.944 76.64-104.944 76.64-143.92 14.264-234.971 27.867-289.59 115.893a143.113 143.113 0 00-21.424 73.445 154.953 154.953 0 0022.176 82.358 1610.445 1610.445 0 00120.863 175.116c52.088 65.712 113.064 139.393 100.378 222.28-9.633 62.942-59.824 110.892-108.327 152.145-55.958 47.598-114.963 94.007-184.034 119.031s-150.648 25.738-211.962-14.728c-62.46-41.225-92.721-115.362-124.086-183.311-36.206-78.436-33.506-163.726-99.956-218.93-86.555-71.904-180.203-22.571-180.203-22.571-100.542 36.517-198.875 94.144-303.378 116.98s-215.316-26.311-294.065-98.705c-92.847-85.356-101.302-234.035-55.641-351.599 22.608-58.212 57.028-114.683 56.516-177.13-.776-94.37-79.537-168.352-111.435-257.172 0 0-166.192-305.334 34.233-464.31.005.004 77.047-71.013 174.058-61.776z"/><path d="M2102.838-799.402c108.361 10.318 187.949 111.295 232.403 210.654s61.077 208.617 93.959 312.384 87.422 207.92 181.96 261.873c38.352 21.888 86.8 34.106 126.321 14.404 43.779-21.823 62.188-75.822 61.473-124.73s-16.027-96.445-20.54-145.153c-4.575-49.403 3.031-101.958 32.51-141.866s84.218-63.307 130.845-46.345c52.48 19.094 78.045 80.708 77.583 136.55-.461 55.631-15.685 123.426 28.425 157.327 45.842 35.233 110.379-1.271 156.775-35.775 48.805-36.291 99.677-71.55 157.432-90.604s165.232 7.259 218.028 37.451 83.127 95.209 68.508 154.244c-15.985 64.556-102.61 74.935-102.61 74.935-140.721 13.947-229.75 27.25-283.153 113.317a139.926 139.926 0 00-20.95 71.818 151.506 151.506 0 0021.684 80.528 1574.6 1574.6 0 00118.175 171.225c50.93 64.25 110.552 136.29 98.143 217.34-9.419 61.542-58.494 108.426-105.918 148.763-54.716 46.536-112.408 91.917-179.946 116.384s-147.298 25.166-207.25-14.4c-61.073-40.308-90.66-112.798-121.328-179.236-35.404-76.695-32.76-160.086-97.734-214.06-84.625-70.31-176.19-22.074-176.19-22.074-98.306 35.7-194.453 92.045-296.635 114.377s-210.529-25.726-287.528-96.511c-90.784-83.456-99.05-228.832-54.404-343.781 22.106-56.919 55.762-112.135 55.26-173.194-.76-92.271-77.77-164.61-108.958-251.453 0 0-162.498-298.546 33.474-453.989 0 0 75.333-69.435 170.186-60.403z"/><path d="M2113.745-779.004c105.897 10.084 183.674 108.764 227.118 205.864s59.69 203.875 91.822 305.282 85.433 203.19 177.824 255.92c37.48 21.39 84.826 33.33 123.448 14.077 42.783-21.326 60.772-74.094 60.076-121.893s-15.664-94.25-20.072-141.852c-4.472-48.28 2.961-99.64 31.769-138.642s82.304-61.865 127.868-45.288c51.285 18.659 76.27 78.873 75.818 133.445-.45 54.367-15.329 120.624 27.779 153.75 44.8 34.432 107.87-1.245 153.21-34.962 47.696-35.466 97.409-69.923 153.852-88.544s161.476 7.094 213.07 36.602 81.238 93.044 66.952 150.736C3608.653-31.423 3524-21.276 3524-21.276c-137.518 13.629-224.52 26.629-276.711 110.74a136.738 136.738 0 00-20.472 70.18 148.056 148.056 0 0021.19 78.696 1538.726 1538.726 0 00115.488 167.33c49.772 62.791 108.037 133.196 95.915 212.398-9.206 60.145-57.164 105.961-103.51 145.38-53.474 45.481-109.855 89.826-175.852 113.739s-143.949 24.595-202.54-14.074c-59.685-39.391-88.599-110.232-118.57-175.16-34.596-74.949-32.016-156.447-95.512-209.195-82.707-68.708-172.19-21.57-172.19-21.57-96.07 34.893-190.03 89.958-289.887 111.779s-205.743-25.141-280.99-94.318c-88.72-81.56-96.8-223.628-53.168-335.964 21.604-55.625 54.493-109.586 54.003-169.256-.741-90.174-76.001-160.867-106.48-245.736 0 0-158.803-291.76 32.713-443.665.002-.004 73.619-67.859 166.317-59.032z"/><path d="M2124.65-758.608c103.43 9.847 179.402 106.234 221.836 201.075s58.3 199.133 89.685 298.182 83.445 198.46 173.685 249.966c36.609 20.893 82.854 32.555 120.579 13.747 41.787-20.83 59.358-72.37 58.678-119.056s-15.298-92.06-19.604-138.552c-4.368-47.158 2.892-97.323 31.03-135.416s80.388-60.427 124.895-44.234c50.092 18.224 74.496 77.038 74.054 130.34-.44 53.101-14.97 117.812 27.134 150.173 43.756 33.63 105.36-1.217 149.646-34.148 46.584-34.641 95.142-68.297 150.273-86.484s157.719 6.93 208.112 35.75 79.348 90.88 65.393 147.23c-15.26 61.625-97.943 71.528-97.943 71.528C3367.78-5.193 3282.8 7.503 3231.827 89.658a133.561 133.561 0 00-19.996 68.547 144.613 144.613 0 0020.698 76.867 1503.048 1503.048 0 00112.798 163.44c48.614 61.329 105.524 130.096 93.683 207.456-8.99 58.743-55.836 103.5-101.103 141.999-52.228 44.422-107.297 87.737-171.76 111.091s-140.6 24.022-197.826-13.745c-58.296-38.475-86.537-107.668-115.81-171.086-33.791-73.206-31.272-152.807-93.288-204.328-80.783-67.108-168.185-21.067-168.185-21.067-93.838 34.075-185.614 87.859-283.147 109.172s-200.956-24.556-274.454-92.12c-86.652-79.661-94.549-218.423-51.932-328.15 21.102-54.33 53.222-107.035 52.747-165.316-.722-88.08-74.23-157.13-104-240.024 0 0-155.109-284.97 31.951-433.344 0 0 71.907-66.279 162.448-57.658z"/><path d="M2135.558-738.21c100.97 9.615 175.128 103.704 216.55 196.287s56.912 194.388 87.55 291.076S2521.114-57.11 2609.206-6.83c35.736 20.396 80.88 31.779 117.704 13.422 40.792-20.333 57.945-70.647 57.284-116.22s-14.934-89.867-19.133-135.25c-4.265-46.035 2.824-95.008 30.29-132.191s78.474-58.987 121.919-43.181c48.9 17.79 72.722 75.203 72.29 127.236-.434 51.829-14.62 114.995 26.48 146.588 42.715 32.828 102.85-1.188 146.081-33.335 45.475-33.816 92.878-66.669 146.694-84.425s153.966 6.765 203.155 34.898 77.459 88.714 63.841 143.725c-14.896 60.153-95.612 69.825-95.612 69.825-131.123 12.996-214.078 25.39-263.844 105.587a130.378 130.378 0 00-19.519 66.916 141.17 141.17 0 0020.205 75.035 1467.217 1467.217 0 00110.116 159.544c47.458 59.865 103.01 126.998 91.453 202.514-8.777 57.345-54.505 101.032-98.695 138.617-50.984 43.364-104.74 85.647-167.67 108.446s-137.25 23.452-193.11-13.417c-56.908-37.559-84.478-105.103-113.053-167.01-32.99-71.463-30.526-149.168-91.068-199.462-78.859-65.51-164.178-20.566-164.178-20.566-91.603 33.268-181.19 85.771-276.404 106.576s-196.168-23.972-267.915-89.929c-84.591-77.765-92.295-213.223-50.695-320.33 20.6-53.037 51.958-104.487 51.49-161.38-.707-85.979-72.466-153.384-101.525-234.304 0 0-151.414-278.183 31.19-423.021.002-.002 70.196-64.704 158.58-56.287z"/><path d="M2146.464-717.812c98.507 9.38 170.851 101.17 211.265 191.495s55.525 189.647 85.415 283.977 79.473 189.01 165.412 238.058c34.864 19.898 78.907 31.003 114.834 13.095 39.797-19.84 56.53-68.924 55.884-113.386s-14.572-87.672-18.67-131.954c-4.161-44.91 2.753-92.686 29.551-128.965s76.56-57.548 118.948-42.125c47.706 17.357 70.947 73.368 70.524 124.136-.418 50.57-14.254 112.203 25.84 143.02 41.67 32.026 100.341-1.159 142.517-32.522 44.366-32.99 90.61-65.043 143.117-82.363s150.206 6.598 198.199 34.048 75.57 86.545 62.277 140.215c-14.533 58.685-93.278 68.12-93.278 68.12-127.923 12.68-208.855 24.77-257.401 103.012a127.2 127.2 0 00-19.044 65.283 137.735 137.735 0 0019.71 73.203 1431.467 1431.467 0 00107.428 155.652c46.299 58.408 100.497 123.899 89.222 197.573-8.563 55.945-53.174 98.563-96.287 135.234-49.74 42.306-102.187 83.557-163.578 105.8s-133.902 22.879-188.401-13.09c-55.517-36.642-82.416-102.538-110.294-162.937-32.182-69.717-29.781-145.526-88.846-194.593-76.934-63.912-160.171-20.066-160.171-20.066-89.371 32.45-176.774 83.672-269.661 103.97s-191.383-23.385-261.378-87.736c-82.528-75.867-90.043-208.02-49.459-312.517 20.096-51.742 50.69-101.937 50.235-157.442-.69-83.879-70.695-149.641-99.049-228.583 0 0-147.72-271.396 30.43-412.7 0-.001 68.48-63.123 154.71-54.912z"/><path d="M2157.37-697.414c96.04 9.146 166.58 98.643 205.983 186.707s54.134 184.902 83.277 276.873S2524.114-49.551 2607.905-1.73c33.992 19.4 76.933 30.229 111.962 12.767 38.8-19.342 55.118-67.202 54.485-110.55s-14.205-85.481-18.206-128.647c-4.056-43.788 2.685-90.369 28.812-125.74s74.645-56.11 115.968-41.074c46.513 16.923 69.172 71.536 68.764 121.027-.405 49.304-13.898 109.392 25.201 139.44 40.63 31.227 97.832-1.13 138.952-31.708 43.257-32.167 88.344-63.417 139.535-80.305s146.45 6.433 193.241 33.194 73.679 84.386 60.722 136.71C3513.172-19.4 3436.395-10.2 3436.395-10.2c-124.723 12.362-203.631 24.152-250.96 100.437a124.018 124.018 0 00-18.567 63.65 134.287 134.287 0 0019.218 71.373 1395.631 1395.631 0 00104.737 151.755c45.14 56.947 97.982 120.8 86.989 192.632-8.348 54.546-51.845 96.1-93.878 131.852-48.496 41.249-99.63 81.468-159.488 103.155s-130.558 22.303-183.69-12.764c-54.13-35.724-80.353-99.975-107.537-158.861-31.376-67.974-29.037-141.887-86.624-189.728-75.01-62.313-156.164-19.562-156.164-19.562-87.131 31.642-172.35 81.586-262.914 101.377s-186.596-22.802-254.84-85.54c-80.465-73.97-87.794-202.816-48.222-304.701 19.593-50.446 49.422-99.387 48.977-153.504-.672-81.783-68.928-145.898-96.571-222.87 0 0-144.025-264.608 29.669-402.378 0 0 66.768-61.544 150.84-53.538z"/><path d="M2168.275-677.017c93.579 8.911 162.31 96.112 200.7 181.918s52.745 180.16 81.141 269.767S2525.612-45.771 2607.254.82c33.121 18.902 74.96 29.454 109.09 12.44 37.806-18.844 53.702-65.475 53.088-107.714s-13.841-83.29-17.737-125.352c-3.95-42.667 2.617-88.05 28.073-122.514s72.73-54.67 112.994-40.021c45.32 16.487 67.398 69.697 67 117.922-.398 48.041-13.545 106.588 24.547 135.865 39.589 30.426 95.322-1.1 135.389-30.895 42.147-31.34 86.078-61.789 135.956-78.245s142.691 6.269 188.285 32.343 71.787 82.22 59.163 133.203c-13.805 55.75-88.613 64.714-88.613 64.714-121.525 12.047-198.408 23.534-244.522 97.862a120.84 120.84 0 00-18.091 62.017 130.848 130.848 0 0018.726 69.544 1359.821 1359.821 0 00102.055 147.865c43.982 55.486 95.47 117.702 84.758 187.69-8.132 53.143-50.514 93.636-91.47 128.47-47.252 40.19-97.074 79.378-155.396 100.508s-127.203 21.734-178.978-12.437c-52.741-34.809-78.29-97.414-104.777-154.783-30.576-66.227-28.293-138.248-84.403-184.86-73.088-60.717-152.16-19.061-152.16-19.061-84.897 30.834-167.928 79.493-256.169 98.775s-181.81-22.217-248.304-83.346c-78.4-72.073-85.539-197.616-46.983-296.885 19.09-49.154 48.155-96.838 47.722-149.567-.656-79.684-67.16-142.154-94.094-217.152 0 0-140.331-257.82 28.907-392.056-.003-.006 65.05-59.967 146.965-52.168z"/><path d="M2179.183-656.619c91.114 8.677 158.034 93.583 195.416 177.129s51.355 175.419 79.004 262.667 73.51 174.829 153.003 220.193c32.249 18.405 72.986 28.678 106.217 12.112 36.811-18.35 52.29-63.753 51.692-104.88s-13.478-81.095-17.27-122.053c-3.848-41.54 2.548-85.731 27.335-119.288s70.815-53.23 110.019-38.967c44.128 16.054 65.624 67.864 65.235 114.818-.388 46.777-13.188 103.782 23.902 132.288 38.546 29.625 92.814-1.076 131.824-30.081 41.04-30.514 83.81-60.163 132.375-76.185s138.938 6.105 183.329 31.492 69.897 80.056 57.605 129.696c-13.442 54.281-86.28 63.01-86.28 63.01C3274.263 7.06 3199.406 18.244 3154.5 90.615a117.656 117.656 0 00-17.614 60.383 127.394 127.394 0 0018.233 67.712 1323.9 1323.9 0 0099.365 143.971c42.824 54.026 92.956 114.604 82.526 182.75-7.92 51.747-49.186 91.17-89.062 125.087-46.009 39.133-94.519 77.288-151.305 97.863s-123.856 21.16-174.266-12.11c-51.353-33.892-76.232-94.845-102.019-150.71-29.766-64.487-27.547-134.608-82.18-179.995-71.162-59.113-148.153-18.559-148.153-18.559-82.662 30.031-163.507 77.41-249.425 96.184s-177.024-21.631-241.767-81.15c-76.336-70.175-83.286-192.413-45.746-289.069 18.588-47.86 46.888-94.288 46.465-145.63-.642-77.588-65.392-138.411-91.616-211.435 0 0-136.637-251.033 28.146-381.734 0 0 63.344-58.383 143.1-50.792z"/><path d="M2190.09-636.222c88.65 8.443 153.761 91.052 190.131 172.34s49.967 170.672 76.868 255.565S2528.61-38.215 2605.953 5.925c31.377 17.908 71.013 27.903 103.346 11.785 35.815-17.853 50.875-62.029 50.292-102.042s-13.112-78.903-16.803-118.751c-3.744-40.417 2.479-83.414 26.597-116.063s68.899-51.79 107.044-37.914c42.933 15.62 63.85 66.029 63.472 111.713-.383 45.512-12.833 100.978 23.253 128.712 37.505 28.825 90.302-1.044 128.26-29.268 39.928-29.69 81.545-58.536 128.794-74.125s135.179 5.938 178.372 30.64 68.008 77.892 56.048 126.19c-13.078 52.814-83.946 61.305-83.946 61.305C3255.554 9.52 3182.72 20.4 3139.03 90.813a114.472 114.472 0 00-17.136 58.752 123.954 123.954 0 0017.74 65.881 1288.325 1288.325 0 0096.68 140.084c41.667 52.564 90.443 111.504 80.295 177.807-7.706 50.349-47.855 88.706-86.653 121.706-44.764 38.074-91.962 75.197-147.214 95.216s-120.507 20.588-169.554-11.782c-49.965-32.977-74.17-92.28-99.26-146.636-28.961-62.742-26.802-130.968-79.958-175.126-69.238-57.522-144.15-18.062-144.15-18.062-80.425 29.21-159.085 75.31-242.683 93.574s-172.233-21.044-235.226-78.956c-74.272-68.277-81.035-187.21-44.508-281.252 18.086-46.565 45.618-91.738 45.208-141.691-.623-75.489-63.625-134.67-89.14-205.719 0 0-132.942-244.244 27.385-371.412 0 0 61.63-56.808 139.232-49.419z"/><path d="M2200.996-615.824c86.186 8.207 149.489 88.521 184.847 167.55s48.58 165.93 74.732 248.462 69.534 165.375 144.728 208.29c30.5 17.408 69.039 27.126 100.471 11.456 34.82-17.358 49.462-60.305 48.895-99.207s-12.748-76.71-16.338-115.452c-3.64-39.295 2.41-81.097 25.855-112.838s66.986-50.351 104.07-36.86c41.74 15.186 62.075 64.194 61.707 108.609-.366 44.248-12.475 98.17 22.61 125.134 36.462 28.023 87.793-1.014 124.695-28.455 38.818-28.865 79.278-56.909 125.218-72.064s131.422 5.773 173.414 29.789 66.118 75.727 54.49 122.682C3417.675-7.382 3348.777.875 3348.777.875c-111.926 11.092-182.738 21.672-225.213 90.13a111.294 111.294 0 00-16.663 57.117 120.5 120.5 0 0017.248 64.05 1252.423 1252.423 0 0093.996 136.184c40.507 51.107 87.929 108.405 78.064 172.866-7.489 48.95-46.525 86.24-84.246 118.322-43.521 37.015-89.406 73.11-143.122 92.57s-117.158 20.016-164.842-11.454c-48.576-32.06-72.108-89.716-96.502-142.56-28.158-61-26.057-127.33-77.735-170.26-67.313-55.913-140.14-17.552-140.14-17.552-78.192 28.398-154.666 73.214-235.937 90.974s-167.452-20.459-228.695-76.76c-72.211-66.382-78.783-182.007-43.272-273.436 17.58-45.273 44.349-89.191 43.952-137.754-.603-73.39-61.86-130.928-86.663-200 0 0-129.246-237.458 26.625-361.092 0 0 59.917-55.228 135.364-48.044z"/><path d="M2211.9-595.427c83.724 7.972 145.216 85.99 179.565 162.76s47.19 161.187 72.598 241.362 67.545 160.647 140.588 202.334c29.631 16.907 67.066 26.352 97.602 11.13 33.824-16.86 48.048-58.582 47.497-96.37s-12.384-74.516-15.87-112.152c-3.535-38.17 2.342-78.778 25.118-109.613s65.069-48.914 101.095-35.805c40.548 14.752 60.296 62.357 59.943 105.504-.355 42.983-12.118 95.365 21.964 121.557 35.421 27.22 85.284-.985 121.13-27.642 37.709-28.04 77.014-55.282 121.64-70.004s127.666 5.609 168.453 28.936 64.23 73.563 52.933 119.175c-12.351 49.878-79.28 57.898-79.28 57.898-108.728 10.777-177.513 21.053-218.776 87.554a108.111 108.111 0 00-16.186 55.486 117.057 117.057 0 0016.754 62.22 1216.61 1216.61 0 0091.308 132.293c39.35 49.644 85.416 105.307 75.836 167.928-7.277 47.55-45.195 83.774-81.838 114.94-42.275 35.958-86.85 71.02-139.029 89.924s-113.808 19.445-160.13-11.126c-47.187-31.143-70.048-87.152-93.742-138.485-27.354-59.256-25.315-123.687-75.514-165.393-65.389-54.324-136.137-17.053-136.137-17.053-75.956 27.584-150.245 71.12-229.193 88.373s-162.669-19.879-222.16-74.57c-70.142-64.485-76.529-176.808-42.035-265.62 17.08-43.979 43.083-86.64 42.695-133.816-.586-71.288-60.088-127.185-84.185-194.283 0 0-125.551-230.672 25.864-350.769 0-.001 58.204-53.653 131.492-46.673z"/><path d="M2222.808-575.029c81.261 7.738 140.943 83.46 174.28 157.971s45.802 156.444 70.46 234.259 65.56 155.92 136.453 196.38c28.758 16.413 65.09 25.575 94.729 10.803 32.829-16.365 46.633-56.857 46.1-93.535s-12.02-72.326-15.402-108.85c-3.432-37.048 2.272-76.46 24.378-106.387s63.156-47.473 98.12-34.752c39.354 14.318 58.527 60.523 58.18 102.4-.346 41.717-11.762 92.558 21.316 117.98 34.377 26.42 82.774-.957 117.566-26.828 36.6-27.214 74.747-53.655 118.06-67.944s123.909 5.444 163.5 28.086 62.338 71.397 51.375 115.668c-11.988 48.41-76.948 56.194-76.948 56.194-105.528 10.46-172.29 20.435-212.338 84.978a104.932 104.932 0 00-15.71 53.853 113.617 113.617 0 0016.261 60.389 1180.713 1180.713 0 0088.622 128.401c38.192 48.182 82.9 102.212 73.6 162.984-7.066 46.15-43.866 81.31-79.43 111.558-41.032 34.9-84.297 68.933-134.94 87.277s-110.46 18.873-155.42-10.795c-45.8-30.228-67.987-84.587-90.985-134.41-26.55-57.508-24.567-120.049-73.291-160.526-63.465-52.723-132.13-16.553-132.13-16.553-73.723 26.775-145.824 69.03-222.449 85.774s-157.877-19.293-215.615-72.374c-68.078-62.585-74.278-171.602-40.797-257.804 16.577-42.683 41.815-84.09 41.439-129.877-.572-69.202-58.319-123.449-81.71-188.574 0 0-121.859-223.882 25.102-340.448.002-.003 56.491-52.071 127.624-45.298z"/><path d="M2233.714-554.63c78.796 7.503 136.67 80.93 168.996 153.18s44.41 151.7 68.324 227.157 63.57 151.192 132.316 190.427c27.887 15.915 63.12 24.798 91.858 10.475 31.834-15.87 45.219-55.134 44.702-90.7s-11.653-70.132-14.936-105.55c-3.329-35.926 2.203-74.142 23.64-103.161s61.24-46.032 95.145-33.7c38.161 13.884 56.752 58.69 56.416 99.296-.334 40.449-11.406 89.752 20.67 114.403 33.335 25.62 80.264-.926 114.003-26.014 35.489-26.39 72.48-52.03 114.479-65.885s120.152 5.279 158.544 27.235 60.448 69.233 49.818 112.163c-11.628 46.94-74.62 54.488-74.62 54.488-102.328 10.142-167.066 19.814-205.9 82.403a101.742 101.742 0 00-15.234 52.22 110.168 110.168 0 0015.767 58.557 1145.063 1145.063 0 0085.932 124.507c37.035 46.721 80.389 99.109 71.37 158.043-6.85 44.75-42.536 78.845-77.023 108.176-39.788 33.841-81.74 66.839-130.848 84.63s-107.106 18.301-150.7-10.47c-44.41-29.315-65.926-82.023-88.227-130.335-25.743-55.768-23.823-116.41-71.074-155.661-61.54-51.125-128.12-16.05-128.12-16.05-71.486 25.964-141.403 66.942-215.704 83.175s-153.09-18.709-209.081-70.181c-66.017-60.686-72.025-166.399-39.558-249.986 16.076-41.389 40.549-81.54 40.184-125.94-.551-67.098-56.552-119.7-79.23-182.85 0 0-118.163-217.094 24.34-330.125-.004-.004 54.775-50.496 123.75-43.928z"/><path d="M2244.62-534.234c76.333 7.268 132.397 78.4 163.713 148.392s43.027 146.959 66.186 220.056 61.585 146.464 128.18 184.471c27.015 15.419 61.145 24.026 88.984 10.148 30.84-15.373 43.806-53.41 43.305-87.864s-11.292-67.937-14.469-102.251c-3.224-34.802 2.136-71.827 22.9-99.936s59.326-44.594 92.17-32.645c36.968 13.45 54.977 56.853 54.65 96.19-.323 39.19-11.047 86.947 20.025 110.828 32.294 24.818 77.755-.899 110.438-25.201 34.38-25.566 70.215-50.403 110.9-63.826s116.396 5.113 153.587 26.38 58.558 67.07 48.26 108.656c-11.26 45.475-72.281 52.788-72.281 52.788-99.13 9.826-161.843 19.195-199.462 79.824a98.567 98.567 0 00-14.757 50.587 106.72 106.72 0 0015.274 56.727 1109.135 1109.135 0 0083.247 120.616c35.878 45.26 77.878 96.008 69.14 153.1-6.636 43.353-41.206 76.38-74.614 104.795-38.543 32.782-79.183 64.75-126.759 81.986s-103.762 17.728-145.991-10.143c-43.022-28.394-63.865-79.458-85.468-126.26-24.94-54.025-23.08-112.77-68.848-150.79-59.617-49.527-124.118-15.548-124.118-15.548-69.256 25.147-136.983 64.84-208.964 80.574s-148.304-18.123-202.545-67.986c-63.95-58.795-69.772-161.201-38.323-242.176 15.573-40.095 39.28-78.991 38.927-122.003-.534-65-54.783-115.957-76.753-177.133 0 0-114.468-210.305 23.58-319.803.001-.001 53.066-48.915 119.885-42.553z"/><path d="M2255.526-513.835c73.87 7.034 128.124 75.87 158.429 143.602s41.636 142.215 64.05 212.952 59.597 141.738 124.044 178.519c26.143 14.922 59.171 23.25 86.113 9.82 29.846-14.88 42.392-51.686 41.907-85.028s-10.926-65.746-14.002-98.95c-3.122-33.675 2.067-69.504 22.161-96.71s57.411-43.156 89.195-31.592c35.775 13.016 53.203 55.018 52.888 93.087-.313 37.92-10.692 84.138 19.378 107.25 31.25 24.017 75.245-.87 106.873-24.389 33.272-24.738 67.949-48.775 107.321-61.765s112.64 4.948 148.63 25.532 56.667 64.902 46.7 105.147c-10.897 44.008-69.948 51.084-69.948 51.084-95.929 9.507-156.623 18.573-193.024 77.248a95.385 95.385 0 00-14.28 48.951 103.287 103.287 0 0014.785 54.898 1073.412 1073.412 0 0080.56 116.722c34.72 43.801 75.362 92.912 66.908 148.158-6.421 41.953-39.873 73.915-72.204 101.412-37.302 31.723-76.628 62.659-122.667 79.339s-100.414 17.156-141.282-9.817c-41.635-27.478-61.803-76.894-82.712-122.186-24.133-52.281-22.333-109.13-66.624-145.929-57.693-47.927-120.113-15.046-120.113-15.046-67.016 24.339-132.56 62.75-202.215 77.972s-143.517-17.538-196.008-65.791c-61.891-56.887-67.524-155.986-37.092-234.349 15.07-38.801 38.013-76.442 37.67-118.065-.517-62.901-53.013-112.219-74.275-171.416 0 0-110.774-203.518 22.819-309.482 0 0 51.353-47.335 116.015-41.178z"/><path d="M2266.432-493.439c71.406 6.8 123.85 73.339 153.145 138.812s40.249 137.473 61.914 205.853 57.608 137.011 119.905 172.565c25.272 14.424 57.196 22.478 83.241 9.493 28.848-14.38 40.979-49.963 40.508-82.192s-10.561-63.554-13.534-95.65c-3.015-32.555 1.997-67.188 21.421-93.485s55.497-41.716 86.221-30.537c34.58 12.58 51.428 53.183 51.123 89.98-.304 36.66-10.335 81.334 18.732 103.674 30.208 23.217 72.735-.839 103.309-23.574 32.16-23.915 65.68-47.15 103.742-59.704s108.88 4.782 143.671 24.68 54.78 62.739 45.146 101.641c-10.534 42.54-67.617 49.379-67.617 49.379-92.729 9.19-151.396 17.955-186.586 74.672a92.205 92.205 0 00-13.805 47.322 99.83 99.83 0 0014.289 53.065 1037.645 1037.645 0 0077.874 112.83c33.56 42.34 72.849 89.813 64.675 143.219-6.206 40.553-38.546 71.449-69.797 98.029-36.056 30.667-74.072 60.57-118.575 76.693s-97.065 16.585-136.57-9.489c-40.246-26.562-59.742-74.329-79.951-118.11-23.328-50.537-21.588-105.49-64.403-141.058-55.768-46.33-116.107-14.545-116.107-14.545-64.78 23.527-128.14 60.657-195.468 75.374s-138.732-16.955-189.473-63.6c-59.823-54.996-65.271-150.792-35.851-226.54 14.568-37.507 36.745-73.894 36.414-114.128-.5-60.803-51.247-108.472-71.8-165.699 0 0-107.08-196.73 22.058-299.16.003-.005 49.644-45.761 112.15-39.81z"/><path d="M2277.338-473.04c68.942 6.564 119.579 70.809 147.861 134.023s38.86 132.728 59.78 198.747 55.62 132.285 115.767 166.612c24.401 13.925 55.226 21.699 80.37 9.165 27.852-13.884 39.564-48.238 39.11-79.357s-10.197-61.359-13.067-92.35c-2.912-31.432 1.928-64.87 20.684-90.26s53.581-40.276 83.244-29.481c33.388 12.148 49.652 51.347 49.36 86.877-.293 35.392-9.979 78.527 18.085 100.096 29.166 22.415 70.223-.813 99.745-22.761 31.05-23.09 63.416-45.522 100.163-57.645s105.125 4.618 138.714 23.828 52.889 60.574 43.588 98.134c-10.17 41.072-65.284 47.677-65.284 47.677-89.53 8.874-146.172 17.337-180.148 72.096a89.027 89.027 0 00-13.327 45.69 96.393 96.393 0 0013.797 51.23 1001.73 1001.73 0 0075.187 108.937c32.403 40.879 70.335 86.715 62.443 138.277-5.992 39.155-37.215 68.984-67.388 94.647-34.812 29.609-71.515 58.48-114.485 74.047s-93.715 16.011-131.858-9.162c-38.857-25.645-57.676-71.762-77.192-114.035-22.525-48.79-20.843-101.851-62.182-136.192-53.841-44.73-112.1-14.044-112.1-14.044-62.549 22.718-123.723 58.566-188.73 72.773s-133.944-16.369-182.932-61.407c-57.76-53.095-63.021-145.586-34.614-218.721 14.064-36.213 35.475-71.344 35.162-110.189-.484-58.704-49.476-104.727-69.32-159.985 0 0-103.386-189.943 21.297-288.84-.005.002 47.922-44.174 108.27-38.428z"/><path d="M2288.244-452.644c66.478 6.331 115.304 68.28 142.577 129.234s37.472 127.986 57.644 191.646 53.632 127.557 111.63 160.659c23.53 13.428 53.247 20.921 77.498 8.836 26.857-13.388 38.15-46.514 37.713-76.52s-9.833-59.169-12.6-89.05c-2.809-30.309 1.858-62.551 19.943-87.034s51.667-38.837 80.272-28.432c32.195 11.714 47.88 49.514 47.595 83.773-.283 34.129-9.622 75.72 17.443 96.52 28.126 21.612 67.717-.782 96.18-21.947 29.941-22.264 61.15-43.895 96.584-55.584s101.366 4.457 133.756 22.981 50.998 58.41 42.029 94.628c-9.808 39.605-62.95 45.972-62.95 45.972-86.332 8.557-140.95 16.717-173.713 69.52a85.839 85.839 0 00-12.852 44.056 92.948 92.948 0 0013.303 49.404 965.976 965.976 0 0072.5 105.043c31.244 39.418 67.816 83.614 60.21 133.34-5.779 37.754-35.887 66.518-64.98 91.264-33.569 28.552-68.962 56.39-110.394 71.402s-90.366 15.439-127.147-8.836c-37.468-24.729-55.619-69.2-74.434-109.96-21.718-47.05-20.098-98.21-59.96-131.324-51.919-43.133-108.094-13.542-108.094-13.542-60.308 21.906-119.297 56.474-181.983 70.171s-129.158-15.783-176.396-59.21c-55.694-51.2-60.764-140.384-33.377-210.906 13.562-34.92 34.21-68.795 33.902-106.253-.466-56.608-47.711-100.987-66.845-154.265 0 0-99.69-183.156 20.535-278.516.003-.011 46.219-42.611 104.411-37.07z"/><path d="M2299.152-432.246c64.015 6.093 111.03 65.752 137.293 124.445s36.082 123.243 55.509 184.545S2543.599-.427 2599.445 31.446c22.658 12.931 51.278 20.149 74.625 8.51 25.863-12.892 36.738-44.79 36.316-73.685s-9.468-56.975-12.133-85.75c-2.704-29.185 1.79-60.232 19.205-83.809s49.752-37.398 77.296-27.377c31.002 11.279 46.105 47.68 45.832 80.669-.273 32.864-9.266 72.915 16.794 92.942 27.082 20.815 65.207-.753 92.618-21.138 28.832-21.44 58.881-42.27 93.004-53.525s97.612 4.287 128.8 22.125 49.109 56.245 40.472 91.12c-9.443 38.137-60.617 44.27-60.617 44.27-83.132 8.239-135.725 16.097-167.273 66.943a82.649 82.649 0 00-12.376 42.423 89.5 89.5 0 0012.81 47.571 930.26 930.26 0 0069.813 101.152c30.088 37.957 65.309 80.516 57.981 128.394-5.563 36.355-34.556 64.054-62.572 87.883-32.325 27.492-66.405 54.3-106.303 68.754s-87.017 14.868-122.434-8.507c-36.079-23.812-53.556-66.635-71.674-105.884-20.912-45.307-19.354-94.572-57.737-126.46-49.997-41.533-104.09-13.038-104.09-13.038-58.075 21.092-114.875 54.38-175.239 67.572s-124.376-15.197-169.863-57.013c-53.63-49.305-58.514-135.183-32.14-203.091 13.06-33.626 32.941-66.244 32.645-102.315-.448-54.512-45.943-97.242-64.367-148.548 0 0-95.997-176.369 19.774-268.196 0 0 44.503-41.02 100.54-35.684z"/><path d="M2310.058-411.848c61.55 5.862 106.758 63.217 132.01 119.656s34.692 118.499 53.373 177.441S2545.098 3.352 2598.798 34c21.786 12.435 49.305 19.373 71.753 8.182 24.868-12.394 35.323-43.066 34.914-70.85s-9.102-54.78-11.666-82.45c-2.599-28.062 1.721-57.915 18.466-80.584s47.838-35.958 74.322-26.323c29.81 10.846 44.331 45.843 44.068 77.563-.261 31.599-8.906 70.104 16.146 89.364 26.04 20.013 62.698-.724 89.052-20.32 27.723-20.616 56.617-40.642 89.428-51.464s93.851 4.122 123.844 21.275 47.218 54.08 38.918 87.615c-9.08 36.67-58.284 42.565-58.284 42.565-79.932 7.922-130.501 15.478-160.836 64.367a79.478 79.478 0 00-11.9 40.792 86.066 86.066 0 0012.317 45.742 894.373 894.373 0 0067.127 97.259c28.93 36.496 62.796 77.418 55.75 123.453-5.35 34.958-33.225 61.589-60.163 84.501-31.084 26.433-63.847 52.21-102.215 66.107s-83.669 14.296-117.723-8.18c-34.69-22.895-51.498-64.067-68.916-101.81-20.109-43.562-18.614-90.933-55.515-121.59-48.072-39.937-100.079-12.536-100.079-12.536-55.84 20.281-110.455 52.286-168.495 64.97s-119.585-14.614-163.321-54.821c-51.567-47.406-56.263-129.98-30.903-195.275 12.557-32.33 31.673-63.695 31.388-98.377-.432-52.412-44.174-93.502-61.89-142.831 0 0-92.302-169.58 19.013-257.873-.01-.006 42.78-39.448 96.66-34.318z"/><path d="M2320.967-391.449c59.087 5.626 102.485 60.687 126.729 114.867S2481-162.826 2498.93-106.244 2546.6 7.13 2598.15 36.552c20.915 11.936 47.33 18.597 68.881 7.854 23.872-11.9 33.91-41.343 33.521-68.012s-8.74-52.591-11.2-79.15c-2.495-26.938 1.651-55.596 17.727-77.356s45.922-34.52 71.345-25.269c28.617 10.411 42.557 44.008 42.306 74.455-.252 30.336-8.552 67.302 15.497 85.787 24.997 19.212 60.188-.696 85.487-19.508 26.612-19.789 54.35-39.015 85.844-49.405s90.099 3.958 118.887 20.422 45.329 51.916 37.355 84.106c-8.717 35.201-55.952 40.861-55.952 40.861-76.732 7.605-125.278 14.859-154.398 61.79a76.3 76.3 0 00-11.42 39.16 82.613 82.613 0 0011.823 43.911 858.648 858.648 0 0064.44 93.366c27.771 35.036 60.28 74.32 53.518 118.512-5.136 33.557-31.896 59.123-57.756 81.118-29.836 25.378-61.293 50.121-98.12 63.463s-80.32 13.723-113.01-7.852c-33.302-21.98-49.438-61.508-66.158-97.734-19.305-41.819-17.864-87.292-53.294-116.724-46.148-38.337-96.079-12.032-96.079-12.032-53.605 19.469-106.032 50.191-161.75 62.369s-114.797-14.03-156.783-52.627c-49.505-45.51-54.011-124.777-29.666-187.458 12.054-31.037 30.406-61.145 30.134-94.438-.413-50.314-42.406-89.76-59.412-137.114 0 0-88.604-162.79 18.253-247.552-.006-.008 41.07-37.871 92.797-32.944z"/><path d="M2331.87-371.052c56.626 5.392 98.212 58.155 121.441 110.076s31.919 109.016 49.097 163.237 45.683 108.648 95.083 136.842c20.042 11.442 45.357 17.82 66.01 7.527 22.875-11.401 32.495-39.62 32.122-65.177s-8.374-50.399-10.733-75.85c-2.391-25.816 1.583-53.279 16.987-74.132s44.004-33.082 68.372-24.216c27.422 9.977 40.782 42.173 40.543 71.355-.24 29.07-8.196 64.495 14.854 82.212 23.955 18.41 57.68-.667 81.924-18.695 25.503-18.963 52.082-37.392 82.265-47.345s86.343 3.793 113.93 19.571 43.439 49.75 35.8 80.6c-8.352 33.73-53.62 39.157-53.62 39.157-73.533 7.289-120.054 14.24-147.962 59.217a73.119 73.119 0 00-10.946 37.526 79.172 79.172 0 0011.33 42.08 822.775 822.775 0 0061.753 89.467c26.613 33.575 57.768 71.22 51.286 113.57-4.922 32.159-30.567 56.658-55.348 77.736-28.593 24.319-58.739 48.031-94.03 60.817s-76.969 13.151-108.297-7.526c-31.915-21.06-47.373-58.943-63.4-93.66-18.498-40.071-17.12-83.652-51.071-111.857-44.224-36.739-92.071-11.533-92.071-11.533-51.371 18.66-101.613 48.1-155.006 59.768s-110.016-13.445-150.247-50.432c-47.439-43.61-51.758-119.577-28.428-179.646 11.552-29.742 29.139-58.595 28.875-90.5-.396-48.218-40.638-86.017-56.935-131.397 0 0-84.914-156.003 17.493-237.235-.002.004 39.362-36.277 88.928-31.557z"/><path d="M2342.777-350.655c54.16 5.156 93.939 55.626 116.159 105.283s30.527 104.271 46.96 156.138 43.695 103.92 90.946 130.887c19.173 10.942 43.385 17.047 63.138 7.2 21.88-10.907 31.081-37.895 30.725-62.34s-8.012-48.203-10.266-72.55c-2.288-24.692 1.515-50.96 16.249-70.906s42.093-31.642 65.397-23.162c26.23 9.542 39.006 40.338 38.776 68.249-.231 27.807-7.84 61.69 14.208 78.634 22.913 17.609 55.17-.637 78.359-17.88 24.393-18.14 49.818-35.762 78.687-45.29s82.585 3.629 108.972 18.72 41.549 47.586 34.242 77.095c-7.99 32.265-51.287 37.453-51.287 37.453-70.335 6.97-114.831 13.62-141.522 56.637a69.936 69.936 0 00-10.471 35.893 75.724 75.724 0 0010.836 40.251 786.994 786.994 0 0059.066 85.58c25.456 32.114 55.255 68.122 49.055 108.629-4.707 30.76-29.236 54.193-52.94 74.354-27.347 23.26-56.179 45.943-89.938 58.17s-73.621 12.579-103.586-7.197c-30.524-20.147-45.312-56.377-60.641-89.585-17.694-38.332-16.373-80.016-48.849-106.99-42.3-35.14-88.065-11.032-88.065-11.032-49.135 17.846-97.192 46.008-148.262 57.168s-105.225-12.858-143.71-48.238c-45.375-41.713-49.503-114.372-27.193-171.827 11.05-28.448 27.87-56.047 27.62-86.564-.38-46.12-38.872-82.275-54.458-125.68 0 0-81.219-149.217 16.73-226.91-.001 0 37.653-34.705 85.063-30.19z"/><path d="M2353.678-330.259c51.696 4.922 89.662 53.094 110.874 100.497s29.143 99.53 44.83 149.034 41.708 99.193 86.809 124.934c18.3 10.444 41.41 16.271 60.265 6.872 20.884-10.411 29.666-36.172 29.328-59.506s-7.646-46.012-9.8-69.25c-2.182-23.568 1.448-48.645 15.509-67.68s40.179-30.201 62.422-22.109c25.036 9.108 37.233 38.504 37.012 65.146-.22 26.54-7.486 58.882 13.56 75.057 21.87 16.808 52.66-.608 74.795-17.068 23.283-17.313 47.552-34.135 75.105-43.226s78.828 3.463 104.015 17.868 39.658 45.422 32.684 73.586c-7.63 30.797-48.953 35.75-48.953 35.75-67.133 6.652-109.606 12.996-135.085 54.062a66.754 66.754 0 00-9.993 34.26 72.279 72.279 0 0010.344 38.419 751.176 751.176 0 0056.38 81.686c24.297 30.654 52.74 65.023 46.823 103.688-4.493 29.36-27.906 51.728-50.528 70.973-26.104 22.203-53.627 43.852-85.846 55.522s-70.272 12.006-98.874-6.87c-29.136-19.23-43.252-53.813-57.885-85.51-16.89-36.59-15.63-76.374-46.628-102.125-40.375-33.542-84.059-10.53-84.059-10.53-46.9 17.033-92.77 43.915-141.52 54.566s-100.438-12.273-137.173-46.044c-43.311-39.815-47.255-109.17-25.956-164.01 10.547-27.153 26.6-53.497 26.363-82.625-.362-44.022-37.101-78.532-51.98-119.964 0 0-77.524-142.43 15.97-216.586.006.003 35.944-33.124 81.192-28.817z"/><path d="M2364.588-309.86c49.232 4.687 85.393 50.565 105.591 95.708s27.75 94.784 42.69 141.93 39.719 94.466 82.671 118.98c17.43 9.946 39.438 15.495 57.394 6.544 19.89-9.915 28.254-34.447 27.93-56.67s-7.282-43.819-9.332-65.948c-2.078-22.447 1.377-46.325 14.77-64.456s38.264-28.763 59.447-21.056c23.843 8.675 35.458 36.67 35.25 62.04-.212 25.28-7.128 56.078 12.914 71.48 20.827 16.008 50.149-.578 71.229-16.253 22.173-16.488 45.281-32.51 71.527-41.165s75.072 3.297 99.059 17.016 37.768 43.257 31.125 70.079c-7.262 29.33-46.62 34.046-46.62 34.046-63.935 6.337-104.384 12.38-128.648 51.484a63.571 63.571 0 00-9.514 32.633 68.835 68.835 0 009.85 36.591 715.449 715.449 0 0053.692 77.795c23.14 29.191 50.225 61.928 44.592 98.746-4.28 27.96-26.577 49.263-48.123 67.589-24.86 21.144-51.072 41.762-81.756 52.877s-66.924 11.434-94.158-6.54c-27.748-18.314-41.19-51.249-55.124-81.435-16.082-34.842-14.885-72.734-44.405-97.257-38.451-31.943-80.053-10.029-80.053-10.029-44.665 16.222-88.352 41.822-134.773 51.968s-95.652-11.689-130.635-43.85c-41.248-37.918-45.003-103.966-24.72-156.194 10.044-25.86 25.335-50.947 25.108-78.688-.345-41.923-35.334-74.789-49.504-114.246 0 0-73.83-135.642 15.21-206.265-.001-.008 34.22-31.558 77.316-27.455z"/><path d="M2375.496-289.463c46.768 4.454 81.119 48.036 100.306 90.919s26.36 90.04 40.553 134.827 37.732 89.738 78.534 113.027c16.554 9.447 37.464 14.72 54.521 6.217 18.895-9.419 26.844-32.72 26.535-53.829s-6.919-41.624-8.865-62.648c-1.973-21.323 1.308-44.007 14.03-61.23s36.353-27.322 56.474-20.002c22.649 8.245 33.685 34.834 33.485 58.936-.199 24.01-6.77 53.27 12.27 67.903 19.786 15.207 47.64-.55 67.664-15.44 21.065-15.666 43.02-30.882 67.95-39.106s71.314 3.133 94.1 16.165 35.88 41.093 29.569 66.573c-6.9 27.863-44.287 32.343-44.287 32.343-60.735 6.02-99.161 11.76-122.21 48.908a60.383 60.383 0 00-9.046 30.993 65.392 65.392 0 009.358 34.756 679.625 679.625 0 0051.006 73.901c21.982 27.731 47.71 58.824 42.36 93.805-4.065 26.562-25.243 46.8-45.717 64.206-23.616 20.086-48.512 39.673-77.665 50.232s-63.575 10.862-89.454-6.217c-26.36-17.397-39.129-48.684-52.366-77.359-15.278-33.1-14.14-69.094-42.182-92.39-36.527-30.345-76.047-9.526-76.047-9.526-42.43 15.412-83.929 39.728-128.03 49.366s-90.865-11.103-124.099-41.655c-39.183-36.02-42.75-98.764-23.481-148.378 9.542-24.569 24.067-48.397 23.85-74.75-.327-39.825-33.568-71.043-47.027-108.529 0 0-70.134-128.855 14.448-195.943.01-.004 32.523-29.973 73.463-26.075z"/><path d="M2386.4-269.065c44.307 4.22 76.847 45.505 95.025 86.128s24.973 85.298 38.42 127.726 35.744 85.012 74.397 107.074c15.68 8.95 35.49 13.944 51.65 5.89 17.899-8.923 25.425-31 25.134-50.998s-6.549-39.431-8.398-59.348c-1.871-20.2 1.235-41.69 13.292-58.005s34.434-25.885 53.497-18.948c21.457 7.805 31.91 32.998 31.72 55.83-.187 22.747-6.412 50.466 11.623 64.326 18.744 14.406 45.131-.522 64.1-14.626 19.955-14.84 40.755-29.256 64.37-37.046s67.558 2.968 89.146 15.31 33.989 38.927 28.012 63.065c-6.536 26.394-41.955 30.64-41.955 30.64-57.537 5.702-93.939 11.143-115.772 46.33a57.207 57.207 0 00-8.566 29.363 61.955 61.955 0 008.866 32.925 643.906 643.906 0 0048.32 70.008c20.823 26.271 45.2 55.724 40.129 88.864-3.851 25.163-23.917 44.333-43.307 60.824-22.372 19.028-45.96 37.582-73.574 47.586s-60.225 10.29-84.738-5.889c-24.974-16.481-37.067-46.118-49.607-73.284-14.475-31.355-13.393-65.453-39.96-87.523-34.604-28.746-72.042-9.025-72.042-9.025-40.196 14.599-79.506 37.637-121.285 46.767s-86.078-10.519-117.56-39.46c-37.125-34.12-40.505-93.56-22.257-140.558 9.039-23.272 22.798-45.848 22.594-70.814-.31-37.726-31.797-67.304-44.549-102.811 0 0-66.437-122.066 13.687-185.622.006-.003 30.803-28.393 69.589-24.699z"/><path d="M2397.307-248.668c41.842 3.985 72.573 42.975 89.74 81.34s23.583 80.555 36.28 120.623 33.755 80.288 70.26 101.118c14.81 8.45 33.516 13.17 48.777 5.562 16.904-8.426 24.013-29.276 23.738-48.162s-6.189-37.24-7.932-56.053c-1.766-19.076 1.17-39.37 12.553-54.78s32.52-24.446 50.523-17.894c20.264 7.373 30.137 31.164 29.958 52.727-.178 21.481-6.056 47.659 10.976 60.75 17.701 13.603 42.621-.493 60.535-13.812 18.845-14.013 38.487-27.629 60.79-34.986s63.802 2.802 84.189 14.461 32.098 36.763 26.453 59.56c-6.173 24.927-39.622 28.935-39.622 28.935-54.337 5.386-88.714 10.522-109.335 43.755a54.026 54.026 0 00-8.09 27.73 58.5 58.5 0 008.373 31.095 607.817 607.817 0 0045.634 66.116c19.665 24.81 42.686 52.628 37.897 83.922-3.637 23.763-22.587 41.868-40.9 57.443-21.127 17.97-43.403 35.492-69.482 44.94s-56.877 9.717-80.026-5.56c-23.582-15.565-35.007-43.556-46.848-69.21-13.666-29.612-12.65-61.814-37.738-82.657-32.679-27.147-68.036-8.523-68.036-8.523-37.96 13.788-75.085 35.544-114.54 44.166s-81.292-9.935-111.026-37.261c-35.055-32.225-38.247-88.36-21.008-132.746 8.536-21.977 21.531-43.299 21.338-66.875-.293-35.63-30.03-63.562-42.072-97.095 0 0-62.747-115.279 12.926-175.3.001-.004 29.089-26.816 65.715-23.329z"/><path d="M2408.213-228.27c39.379 3.75 68.3 40.445 84.455 76.55s22.195 75.813 34.144 113.52 31.769 75.558 66.126 95.162c13.937 7.955 31.544 12.393 45.904 5.235 15.909-7.93 22.599-27.552 22.34-45.326s-5.826-35.046-7.464-52.748c-1.663-17.953 1.101-37.052 11.813-51.554s30.605-23.005 47.549-16.84c19.07 6.937 28.36 29.333 28.193 49.621-.168 20.217-5.7 44.853 10.33 57.173 16.659 12.803 40.112-.464 56.972-13.001 17.735-13.188 36.221-26.001 57.21-32.925s60.046 2.637 79.231 13.61 30.209 34.598 24.896 56.051c-5.81 23.46-37.288 27.232-37.288 27.232-51.133 5.07-83.49 9.902-102.896 41.179a50.853 50.853 0 00-7.614 26.097 55.058 55.058 0 007.88 29.263 572.269 572.269 0 0042.946 62.223c18.508 23.348 40.174 49.529 35.663 78.98-3.422 22.363-21.257 39.402-38.49 54.06-19.884 16.912-40.845 33.404-65.391 42.294s-53.529 9.146-75.315-5.234c-22.192-14.651-32.946-40.99-44.09-65.135-12.864-27.87-11.905-58.175-35.515-77.79-30.755-25.55-64.03-8.022-64.03-8.022-35.725 12.975-70.665 33.45-107.796 41.566s-76.506-9.35-104.488-35.073c-32.99-30.328-35.995-83.157-19.77-124.93 8.032-20.683 20.264-40.753 20.08-62.938-.276-33.53-28.262-59.819-39.592-91.376 0 0-59.052-108.491 12.162-164.978 0 .005 27.375-25.228 61.845-21.947z"/><path d="M2419.12-207.872c36.914 3.515 64.028 37.911 79.171 71.762s20.807 71.068 32.008 106.417 29.782 70.831 61.987 89.21c13.064 7.457 29.569 11.62 43.033 4.908 14.913-7.434 21.184-25.828 20.94-42.49s-5.458-32.856-6.996-49.45c-1.558-16.829 1.032-34.732 11.074-48.328s28.69-21.566 44.573-15.787c17.877 6.505 26.587 27.494 26.43 46.518-.157 18.952-5.343 42.047 9.683 53.596 15.618 12.003 37.606-.433 53.408-12.188 16.626-12.363 33.955-24.374 53.632-30.865s56.288 2.473 74.273 12.759 28.318 32.433 23.338 52.545c-5.446 21.992-34.956 25.528-34.956 25.528-47.939 4.751-78.267 9.282-96.46 38.603a47.665 47.665 0 00-7.135 24.463 51.612 51.612 0 007.386 27.433 536.373 536.373 0 0040.259 58.33c17.352 21.884 37.66 46.43 33.435 74.04-3.209 20.965-19.928 36.938-36.082 50.678-18.64 15.853-38.293 31.312-61.3 39.647s-50.178 8.574-70.602-4.905c-20.805-13.732-30.884-38.426-41.332-61.06-12.06-26.125-11.16-54.535-33.294-72.922-28.83-23.95-60.024-7.52-60.024-7.52-33.49 12.164-66.243 31.36-101.052 38.966s-71.716-8.763-97.95-32.876c-30.926-28.434-33.744-77.954-18.534-117.113 7.53-19.39 18.995-38.2 18.825-59-.259-31.434-26.493-56.078-37.118-85.662 0 0-55.357-101.702 11.403-154.656.001-.004 25.664-23.658 57.977-20.58z"/><path d="M2430.026-187.474c34.45 3.28 59.754 35.384 73.887 66.972s19.42 66.321 29.872 99.315 27.793 66.104 57.85 83.257c12.194 6.959 27.596 10.843 40.16 4.58 13.918-6.938 19.77-24.103 19.545-39.656s-5.096-30.663-6.53-46.148c-1.456-15.707.964-32.416 10.335-45.104s26.776-20.127 41.598-14.733c16.685 6.07 24.813 25.659 24.664 43.412-.147 17.687-4.986 39.24 9.037 50.018 14.575 11.201 35.093-.407 49.843-11.374 15.517-11.537 31.69-22.747 50.051-28.805s52.532 2.308 69.316 11.91 26.429 30.269 21.78 49.038c-5.082 20.524-32.625 23.823-32.625 23.823-44.738 4.434-73.043 8.662-90.023 36.03a44.483 44.483 0 00-6.66 22.83 48.159 48.159 0 006.894 25.603 500.54 500.54 0 0037.571 54.437c16.193 20.427 35.148 43.331 31.204 69.098-2.995 19.567-18.596 34.47-33.676 47.3-17.396 14.795-35.737 29.222-57.209 37.002s-46.83 8-65.892-4.576c-19.417-12.816-28.822-35.862-38.573-56.984-11.25-24.381-10.416-50.895-31.073-68.056-26.906-22.353-56.018-7.017-56.018-7.017-31.256 11.355-61.822 29.266-94.304 36.366s-66.933-8.18-91.413-30.684c-28.863-26.534-31.49-72.752-17.297-109.298 7.029-18.096 17.727-35.649 17.568-55.063-.241-29.335-24.725-52.333-34.64-79.944 0 0-51.662-94.916 10.643-144.335.009-.01 23.959-22.086 54.115-19.214z"/></g></g></svg>