<?xml version="1.0" encoding="UTF-8"?>
<svg width="162px" height="28px" viewBox="0 0 162 28" version="1.1" xmlns="http://www.w3.org/2000/svg" xmlns:xlink="http://www.w3.org/1999/xlink">
    <!-- Generator: sketchtool 55.2 (78181) - https://sketchapp.com -->
    <title>B7CD06CF-1E22-4F7F-9385-41AA47515981@1x</title>
    <desc>Created with sketchtool.</desc>
    <g id="UI-design-3" stroke="none" stroke-width="1" fill="none" fill-rule="evenodd">
        <g id="Home-v7" transform="translate(-208.000000, -31.000000)" fill="#00191B">
            <g id="Group-14">
                <g id="Group-13" transform="translate(208.000000, 0.000000)">
                    <g id="Group-2" transform="translate(0.000000, 31.000000)">
                        <g id="Group-28-Copy">
                            <g id="Group" transform="translate(0.066108, 0.358394)">
                                <path d="M13.2773359,18.191461 C10.5032574,18.191461 8.24712744,20.4525519 8.24712744,23.231461 C8.24712744,23.5049156 8.26989838,23.7721883 8.31146438,24.0332792 L11.0728923,24.0332792 C10.98217,23.7827338 10.9293993,23.5136428 10.9293993,23.231461 C10.9293993,21.9347338 11.9833684,20.879461 13.2773359,20.879461 C14.5713035,20.879461 15.6241882,21.9347338 15.6241882,23.231461 C15.6241882,23.5136428 15.5725018,23.7827338 15.4806952,24.0332792 L18.2432074,24.0332792 C18.2847734,23.7721883 18.3075444,23.5049156 18.3075444,23.231461 C18.3075444,20.4525519 16.05033,18.191461 13.2773359,18.191461" id="Fill-2"></path>
                                <path d="M33.5662048,19.9524428 C32.5371753,19.782261 31.5536877,20.2648065 31.0281489,21.0938974 C30.9233303,21.7360792 30.7834517,22.3706247 30.6045372,22.9935338 C30.3988759,23.7069883 30.8098371,24.4535338 31.522965,24.6589883 C31.6469401,24.6949883 31.7719996,24.7128065 31.8952518,24.7128065 C32.4782601,24.7128065 33.0150036,24.3280792 33.184882,23.7389883 C33.5325906,22.530261 33.7574084,21.2855338 33.8629499,20.022261 C33.7660831,19.9931701 33.667409,19.9691701 33.5662048,19.9524428" id="Fill-4"></path>
                                <path d="M24.5445764,12.153061 C25.2858969,12.153061 25.8862545,11.5512428 25.8862545,10.8086974 C25.8862545,10.0665156 25.2858969,9.46506103 24.5445764,9.46506103 C23.8032559,9.46506103 23.2028983,10.0665156 23.2028983,10.8086974 C23.2028983,11.5512428 23.8032559,12.153061 24.5445764,12.153061" id="Fill-6"></path>
                                <path d="M38.6172324,16.4317519 C38.4650648,16.0128428 38.0027786,15.7975701 37.5853114,15.9492065 L37.5820584,15.9510247 C36.3795361,16.3895701 35.1256887,16.6644792 33.8642511,16.7775701 C33.4326876,11.6688428 30.995113,6.68266103 27.2834502,3.4713883 C24.1681692,0.77429739 20.4337355,-0.412975337 16.7705061,0.127751935 C12.5810151,0.745206481 9.65476895,3.80666103 9.65476895,7.57357012 C9.65476895,10.5041156 11.3810229,13.0361156 13.8670309,14.2077519 L15.9279814,12.0895701 C13.876067,11.6168428 12.3406552,9.77211557 12.3406552,7.57357012 C12.3406552,5.6113883 13.8485973,3.27793375 17.1612265,2.78920648 C20.8526484,2.24520648 23.7488948,3.96702466 25.5290037,5.5073883 C28.6666943,8.22302466 30.7442713,12.4284792 31.1660758,16.7695701 C29.148137,16.5772065 27.1912822,15.9615701 25.4603295,14.9815701 C25.1971987,14.8332065 24.8794899,14.7732065 24.5599739,14.8368428 C23.8486532,14.9768428 23.3852827,15.6695701 23.5255227,16.3822974 L23.5421491,16.4670247 C23.9982907,18.5481156 23.9744355,20.7379338 23.4919085,22.8099338 C23.3950416,23.2219338 23.2797412,23.630661 23.1485372,24.0335701 L25.9471938,24.0335701 C26.0028561,23.830661 26.0556269,23.6270247 26.1040603,23.4233883 C26.499118,21.7248428 26.6346593,19.9692065 26.5038167,18.2332065 C28.0573007,18.6964792 29.6693384,18.934661 31.2723401,18.9364792 C33.6697945,18.9433883 36.0484539,18.4255701 38.1954279,17.4419338 C38.5713291,17.2681156 38.7614484,16.8295701 38.6172324,16.4317519" id="Fill-8"></path>
                                <path d="M8.19789885,8.23786103 C8.37753624,7.87422466 8.47946329,7.48367921 8.47946329,7.07495194 C8.47946329,6.38695194 8.23585041,5.74840648 7.82199766,5.2145883 C3.03034187,8.29422466 -5.87974114e-13,13.6669519 -5.87974114e-13,19.5353156 C-5.87974114e-13,21.0694974 0.207829983,22.5814974 0.605779219,24.033861 L3.40696594,24.033861 C2.93239069,22.5967701 2.68263327,21.0800428 2.68263327,19.5353156 C2.68263327,15.0465883 4.7884028,10.9029519 8.19789885,8.23786103" id="Fill-10"></path>
                            </g>
                            <path d="M56.2957929,17.3619273 L56.2957929,14.5390182 L63.5449027,14.5390182 L63.5449027,20.9692 C62.6958721,22.0146545 61.6090116,22.8510182 60.2839599,23.4782909 C58.9589083,24.1059273 57.5254235,24.4193818 55.9838672,24.4193818 C53.4205103,24.4193818 51.246428,23.5353818 49.4627045,21.7662909 C47.6786197,19.9979273 46.7865773,17.7455636 46.7865773,15.0095636 C46.7865773,12.2041091 47.6739209,9.9212 49.4496926,8.16083636 C51.2251028,6.4012 53.4638835,5.52083636 56.1660347,5.52083636 C59.196738,5.52083636 61.5699757,6.67101818 63.2850249,8.97138182 L61.2584115,11.0622909 C60.0110701,9.26774545 58.3307195,8.36992727 56.2177211,8.36992727 C54.416287,8.36992727 52.9220798,8.9972 51.7361838,10.2521091 C50.549565,11.5066545 49.9564363,13.0924727 49.9564363,15.0095636 C49.9564363,16.8913818 50.5578782,18.4557455 51.7622078,19.7012 C52.9658144,20.9473818 54.4939973,21.5702909 56.3478408,21.5702909 C57.9584328,21.5702909 59.3358938,21.0652 60.478778,20.0542909 L60.478778,17.3619273 L56.2957929,17.3619273 Z" id="Fill-12"></path>
                            <path d="M70.0278247,14.8526182 C69.3609615,15.6020727 69.0277107,16.5606182 69.0277107,17.7278909 C69.0277107,18.8955273 69.3609615,19.8540727 70.0278247,20.6031636 C70.6943264,21.3526182 71.5476944,21.7271636 72.5868443,21.7271636 C73.6086449,21.7271636 74.4533383,21.3526182 75.1202014,20.6031636 C75.7867032,19.8540727 76.1206769,18.8955273 76.1206769,17.7278909 C76.1206769,16.5606182 75.7867032,15.6020727 75.1202014,14.8526182 C74.4533383,14.1035273 73.6086449,13.7286182 72.5868443,13.7286182 C71.5476944,13.7286182 70.6943264,14.1035273 70.0278247,14.8526182 M67.910489,22.5115273 C66.6457984,21.2395273 66.0136338,19.6449818 66.0136338,17.7278909 C66.0136338,15.8111636 66.6457984,14.2122545 67.910489,12.9315273 C69.1744567,11.6504364 70.7333623,11.0100727 72.5868443,11.0100727 C74.4226156,11.0100727 75.9775453,11.6504364 77.2505491,12.9315273 C78.5239144,14.2122545 79.1604163,15.8111636 79.1604163,17.7278909 C79.1604163,19.6275273 78.5239144,21.2173455 77.2505491,22.4984364 C75.9775453,23.7791636 74.4226156,24.4195273 72.5868443,24.4195273 C70.7333623,24.4195273 69.1744567,23.7835273 67.910489,22.5115273" id="Fill-14"></path>
                            <path d="M95.6641049,18.8257818 L97.6126465,20.9690545 C95.7942245,23.2694182 93.3776136,24.4196 90.3638981,24.4196 C87.6096991,24.4196 85.3365812,23.5439636 83.5438217,21.7926909 C81.7510622,20.0414182 80.8546825,17.7803273 80.8546825,15.0094182 C80.8546825,12.1865091 81.7420261,9.89923636 83.5177978,8.14796364 C85.2928466,6.39669091 87.5403019,5.52105455 90.2598024,5.52105455 C93.3082165,5.52105455 95.6727795,6.67087273 97.3527687,8.97123636 L95.3521792,11.0625091 C94.1051993,9.2676 92.4248487,8.37014545 90.3118503,8.37014545 C88.5104161,8.37014545 87.012233,8.99741818 85.8169396,10.2519636 C84.6220075,11.5068727 84.0241801,13.0926909 84.0241801,15.0094182 C84.0241801,16.8916 84.6303207,18.4556 85.8429635,19.7014182 C87.0552448,20.9476 88.5798133,21.5705091 90.415946,21.5705091 C92.5462937,21.5705091 94.29568,20.6556 95.6641049,18.8257818" id="Fill-16"></path>
                            <path d="M107.395077,11.1669091 L107.395077,13.9898182 C107.256283,13.9727273 107.100501,13.9636364 106.927369,13.9636364 C105.47256,13.9636364 104.454735,14.3734545 103.874618,15.1923636 C103.29414,16.0116364 103.004262,17.3185455 103.004262,19.1130909 L103.004262,24.132 L100.042233,24.132 L100.042233,11.3236364 L102.952214,11.3236364 L102.952214,12.7090909 C103.818233,11.6636364 105.108586,11.1407273 106.823635,11.1407273 C106.996405,11.1407273 107.187247,11.1498182 107.395077,11.1669091" id="Fill-18"></path>
                            <polygon id="Fill-20" points="112.837078 27.7000727 115.949468 27.7000727 122.469908 11.3237091 119.248001 11.3237091 115.870673 20.5771636 112.545032 11.3237091 109.167343 11.3237091 114.207672 24.2888"></polygon>
                            <path d="M144.593391,24.1581091 C142.947739,24.1581091 141.804494,23.8141091 141.163654,23.1257455 C140.522815,22.4373818 140.202576,21.2657455 140.202576,19.6097455 L140.202576,13.9901091 L138.331745,13.9901091 L138.331745,11.3239273 L140.202576,11.3239273 L140.202576,7.74283636 L143.138581,7.74283636 L143.138581,11.3239273 L146.178321,11.3239273 L146.178321,13.9901091 L143.138581,13.9901091 L143.138581,19.1657455 C143.138581,20.0893818 143.276653,20.7079273 143.554241,21.0213818 C143.831107,21.3352 144.385561,21.4919273 145.216881,21.4919273 L146.178321,21.4395636 L146.178321,24.1057455 C145.796998,24.1406545 145.268929,24.1581091 144.593391,24.1581091" id="Fill-22"></path>
                            <path d="M152.114921,14.8526182 C151.448058,15.6020727 151.114807,16.5606182 151.114807,17.7278909 C151.114807,18.8955273 151.448058,19.8540727 152.114921,20.6031636 C152.781423,21.3526182 153.634791,21.7271636 154.673941,21.7271636 C155.695741,21.7271636 156.540434,21.3526182 157.207298,20.6031636 C157.873799,19.8540727 158.207773,18.8955273 158.207773,17.7278909 C158.207773,16.5606182 157.873799,15.6020727 157.207298,14.8526182 C156.540434,14.1035273 155.695741,13.7286182 154.673941,13.7286182 C153.634791,13.7286182 152.781423,14.1035273 152.114921,14.8526182 M149.997585,22.5115273 C148.732895,21.2395273 148.10073,19.6449818 148.10073,17.7278909 C148.10073,15.8111636 148.732895,14.2122545 149.997585,12.9315273 C151.261553,11.6504364 152.820459,11.0100727 154.673941,11.0100727 C156.509712,11.0100727 158.064641,11.6504364 159.337645,12.9315273 C160.611011,14.2122545 161.247512,15.8111636 161.247512,17.7278909 C161.247512,19.6275273 160.611011,21.2173455 159.337645,22.4984364 C158.064641,23.7791636 156.509712,24.4195273 154.673941,24.4195273 C152.820459,24.4195273 151.261553,23.7835273 149.997585,22.5115273" id="Fill-24"></path>
                            <path d="M128.094835,14.8656364 C128.683626,14.0903636 129.523983,13.7023636 130.61518,13.7023636 C131.689029,13.7023636 132.524686,14.0947273 133.122152,14.8787273 C133.719979,15.6627273 134.018532,16.6216364 134.018532,17.754 C134.018532,18.8870909 133.719979,19.8452727 133.122152,20.6292727 C132.524686,21.4136364 131.689029,21.8056364 130.61518,21.8056364 C129.523983,21.8056364 128.683626,21.418 128.094835,20.6423636 C127.505682,19.8670909 127.211467,18.9041818 127.211467,17.754 C127.211467,16.6038182 127.505682,15.6412727 128.094835,14.8656364 L128.094835,14.8656364 Z M127.263515,27.7001818 L127.263515,23.1910909 C128.250617,24.0103636 129.436875,24.4194545 130.82301,24.4194545 C132.641794,24.4194545 134.130941,23.7881818 135.291897,22.5245455 C136.452131,21.2612727 137.032609,19.6623636 137.032609,17.7278182 C137.032609,15.7936364 136.452131,14.1903636 135.291897,12.9183636 C134.130941,11.6463636 132.641794,11.01 130.82301,11.01 C129.33314,11.01 128.129534,11.498 127.211467,12.474 L127.211467,11.3238182 L124.301486,11.3238182 L124.301486,27.7001818 L127.263515,27.7001818 Z" id="Fill-26"></path>
                        </g>
                    </g>
                </g>
            </g>
        </g>
    </g>
</svg>