<svg xmlns="http://www.w3.org/2000/svg" xmlns:xlink="http://www.w3.org/1999/xlink" width="104" height="24">
  <defs>
    <path id="A" d="M.02.3h8.194v16.02H.02z"/>
    <path id="B" d="M.064.32h5.348v5.104H.064z"/>
    <path id="C" d="M.448.32h5.338v5.096H.448z"/>
  </defs>
  <g fill="none">
    <g transform="translate(31.68 7.36)">
      <mask id="D" fill="#fff">
        <use xlink:href="#A"/>
      </mask>
      <path d="M.02 15.236l.84-2.275c.18-.492.27-.547.797-.508.294.022.596.07.88.023.764-.127 1.26-.765 1.314-1.632l.01-.53V1.17l.004-.278c.032-.373.168-.57.54-.58L7.71.325c.348.01.484.193.5.544l.007 1.78-.025 8.478c-.036 1.716-.657 3.214-2.11 4.26-.737.53-1.578.806-2.473.9-.915.085-1.832.065-2.72-.213-.33-.103-.674-.205-.855-.55v-.277z" mask="url(#D)" fill="#000"/>
    </g>
    <path d="M103 8.246l-.1.848-.176 2.27c-.038.556-.216.68-.772.587-.664-.112-1.31-.036-1.892.334-.693.442-.94 1.123-.95 1.898V17.935c-.001.11-.01.222-.03.33-.064.33-.205.48-.54.485-1.066.012-2.13.013-3.197-.001-.328-.003-.48-.164-.54-.488a1.82 1.82 0 0 1-.023-.331l-.001-9.45c0-.65.178-.83.816-.83h1.974c.594.003.798.204.824.787l.075 1.063c.03-.015.065-.022.072-.038.44-1.164 1.375-1.692 2.516-1.92.41-.083.844-.064 1.267-.08.36-.014.598.15.684.51v.277z" fill="#000"/>
    <g transform="translate(66.24 .64)">
      <mask id="E" fill="#fff">
        <use xlink:href="#B"/>
      </mask>
      <path d="M3.057.32c.487.107.962.224 1.37.54.825.64 1.105 1.5.938 2.484-.162.963-.766 1.623-1.692 1.91-1.097.34-2.134.2-2.954-.683C-.476 3.283-.026.95 1.97.437L2.5.32h.556z" mask="url(#E)" fill="#000"/>
    </g>
    <g transform="translate(34.56 .64)">
      <mask id="F" fill="#fff">
        <use xlink:href="#C"/>
      </mask>
      <path d="M3.426.32c.477.104.946.216 1.35.523.848.646 1.142 1.52.96 2.524-.18.987-.814 1.632-1.786 1.918-1.164.34-2.334.008-2.988-.882C.375 3.607.306 2.716.68 1.826 1.045.956 1.765.504 2.7.372c.06-.01.12-.035.18-.053h.556z" mask="url(#F)" fill="#000"/>
    </g>
    <g fill="#000">
      <path d="M59.78 15.15c1.135.008 2-.795 1.987-1.932s-.73-1.934-1.95-1.967c-1.103-.028-1.965.82-1.977 1.92-.013 1.123.818 1.97 1.94 1.98m-2.47 2.54l-.106.605c-.06.293-.255.45-.546.455a79.02 79.02 0 0 1-2.335-.001c-.348-.006-.52-.192-.55-.536a4.12 4.12 0 0 1-.012-.361l-.001-15.43c0-.775.13-.905.897-.905h2.585c.63.001.814.18.814.805l.001 6.044c.585-.467 1.194-.743 1.882-.86 2.106-.354 4.24.576 5.264 2.45 1.266 2.316 1.235 4.658-.3 6.856-1.668 2.405-5.245 2.914-7.464.974-.034-.03-.074-.052-.14-.1m-7.917-.223c-1.084 1.298-2.466 1.602-4.008 1.475-1.074-.088-2.062-.4-2.908-1.1-.9-.726-1.37-1.684-1.536-2.8-.068-.455-.08-.923-.08-1.384l-.004-5.1.001-.222c.014-.518.182-.697.708-.703h2.92c.528.003.718.2.72.758l.004 4.56c.001.304.003.615.067.9a1.44 1.44 0 0 0 1.518 1.191c.8-.014 1.376-.448 1.535-1.214a5.11 5.11 0 0 0 .107-.99l.005-4.477c.001-.55.174-.732.73-.737h2.864c.534.004.713.185.714.725v9.65c-.001.57-.18.733-.76.734a222.91 222.91 0 0 1-1.807-.001c-.5-.002-.715-.208-.74-.724l-.048-.568m37.19-5.58h3.345c-.03-.677-.63-1.146-1.52-1.2-.922-.062-1.687.443-1.824 1.2zm-.01 2.442c.316.765.88 1.15 1.607 1.28 1.084.193 2.134.088 3.108-.485.346-.204.588-.14.803.196l1 1.603c.247.418.18.695-.23.965-.88.58-1.86.877-2.898 1.017a9.38 9.38 0 0 1-2.656 0c-2.638-.395-4.7-2.27-4.985-5.018-.16-1.6.178-3.074 1.2-4.345.818-1.02 1.9-1.628 3.17-1.898 1.388-.295 2.762-.247 4.078.314 1.732.738 2.735 2.1 3.117 3.906.118.557.143 1.136.17 1.707.025.548-.196.754-.75.757l-6.722.001zm-8.185-2.995l.013 2.58c.055.795.7 1.25 1.56 1.17a7.89 7.89 0 0 0 .978-.168c.38-.084.565-.035.732.307l.988 2.134c.184.423.116.595-.3.815-1.202.65-2.492.905-3.852.812-.906-.062-1.77-.277-2.54-.783-1.072-.705-1.64-1.732-1.83-2.975-.07-.456-.1-.922-.1-1.384l-.004-2.507c-.45 0-3.1.001-3.542-.001-.138-.001-.28.006-.416-.015-.325-.05-.495-.23-.5-.564l-.001-2.474c.003-.356.153-.537.512-.566.46-.037 3.15-.027 3.612-.036h.6V4.574c.003-.566.164-.726.73-.727l2.67.001c.482.002.67.192.67.677v3.122h2.926c.6.001.797.188.798.794v2.085c-.002.588-.194.776-.788.776l-2.916.001"/>
      <path d="M66.842 13.2V8.41c.001-.587.17-.757.76-.76h2.836c.552.001.745.202.745.76v9.563c0 .598-.184.783-.775.784h-2.836c-.554-.001-.73-.174-.73-.73l-.001-4.837"/>
    </g>
    <path d="M17.63 8.362c0 1.48-.576 2.87-1.622 3.918s-2.438 1.622-3.92 1.622a5.5 5.5 0 0 1-3.918-1.622c-1.046-1.046-1.622-2.437-1.622-3.918H0a12.09 12.09 0 0 0 12.088 12.089A12.09 12.09 0 0 0 24.178 8.362H17.63z" fill="#EB001B"/>
    <path d="M17.606 8.318h6.64v-6.4h-6.64z" fill="#098EEB"/>
  </g>
</svg>